<svg xmlns="http://www.w3.org/2000/svg" width="90.506" height="172.888" viewBox="0 0 90.506 172.888"><g transform="translate(5367 5795.645)"><path d="M411.978,215.295a12.379,12.379,0,0,0,4.17-9.31,11.9,11.9,0,1,0-15,11.826c3.114-1.4,7.166-2.69,10.827-2.516" transform="translate(-5741.641 -5962.666)" fill="#fff"/><path d="M430.141,215.295a12.379,12.379,0,0,1-4.17-9.31,11.9,11.9,0,1,1,15,11.826c-3.114-1.4-7.166-2.69-10.827-2.516" transform="translate(-5742.876 -5962.666)" fill="#fff"/><path d="M432.776,285.274c0,3.7-5.542,6.695-12.378,6.695s-12.379-3-12.379-6.695,5.543-6.695,12.379-6.695,12.378,3,12.378,6.695" transform="translate(-5742.217 -5965.782)" fill="#143352"/><path d="M429.442,285.381c0,2.143-3.99,3.881-8.912,3.881s-8.913-1.738-8.913-3.881,3.991-3.881,8.913-3.881,8.912,1.738,8.912,3.881" transform="translate(-5742.349 -5965.889)" fill="#fff"/><path d="M461.809,260.991a7.24,7.24,0,0,1-10.2,2.76l-4.462-2.566c-1.036,6.033-6.335,9.572-12.018,8.04,0,0-8.192-3.439-15.477-3.439h-.023v.008c-.049,0-.1,0-.147,0s-.1,0-.147,0v-.008h-.024c-7.285,0-15.507,3.439-15.507,3.439-5.683,1.532-10.983-2.007-12.018-8.04l-4.462,2.566a7.24,7.24,0,0,1-10.2-2.76,8.078,8.078,0,0,1,3.33-10.539l10.469-6.022c.128-.073.257-.132.386-.2.246-2.376.438-3.42.438-3.42.771-6.247,6.227-9.76,11.926-7.891,0,0,8.274,3.324,15.619,3.324h.023v-.009l.147,0,.147,0,.023.01c7.345,0,15.619-3.324,15.619-3.324,5.7-1.87,11.156,1.644,11.926,7.891a24.746,24.746,0,0,1,.438,3.42c.129.066.259.125.386.2l10.469,6.022a8.077,8.077,0,0,1,3.33,10.539" transform="translate(-4902.277 -5462.325) rotate(180)" fill="#fff"/><path d="M418.068,266.487c-25.783-4.211-22.841-32.315-22.75-33.137a10.645,10.645,0,0,0-4.437,7.245l-4.519-2.684a7.213,7.213,0,0,0-10.329,2.887,8.6,8.6,0,0,0,3.374,11.027l10.6,6.3c.128.075.261.138.391.207.249,2.486.443,3.577.443,3.577.78,6.537,6.308,10.214,12.082,8.256,0,0,8.38-3.477,15.821-3.477h.024v.012l.148,0,.15,0,.024-.012c.048,0,.1,0,.148,0-.374-.067-.766-.137-1.177-.2" transform="translate(-5741.012 -5964.121)" fill="#e5ebf5"/><path d="M420.587,265.058a51.7,51.7,0,0,1,15.218,3.567,8.025,8.025,0,0,0,2.507.408c3.868,0,6.933-3.053,7.456-7.424l.039-.208a27.976,27.976,0,0,0,.4-3.318l.071-.842.881-.459c.062-.031.123-.062.184-.1l10.607-6.3a7.042,7.042,0,0,0,2.783-9.015,5.534,5.534,0,0,0-5.024-3.141,6.168,6.168,0,0,0-3.141.889l-6.455,3.835-.369-2.22c-.746-4.486-3.954-7.5-7.984-7.5a8.383,8.383,0,0,0-2.165.291,49.349,49.349,0,0,1-14.968,3.651v.019l-.685,0c-.178,0-.355.006-.533.006h-.325c-7.27,0-15.194-3.239-16.236-3.679a8.4,8.4,0,0,0-2.166-.291c-4.029,0-7.238,3.013-7.984,7.5l-.369,2.22-6.456-3.835a6.163,6.163,0,0,0-3.141-.889,5.534,5.534,0,0,0-5.023,3.141,7.041,7.041,0,0,0,2.782,9.015l10.606,6.3c.061.036.122.066.183.1l.871.455.083.826c.238,2.377.426,3.453.428,3.463.535,4.457,3.6,7.511,7.468,7.511a8.1,8.1,0,0,0,2.6-.444c.258-.111,8.658-3.558,16.316-3.558Zm17.726,7.053h0a11.194,11.194,0,0,1-3.591-.606c-.174-.069-8.092-3.314-15.067-3.394l-.286.008-.148,0-.149,0h-.682c-6.9.2-14.5,3.317-14.574,3.349a11.242,11.242,0,0,1-3.686.643c-5.476,0-9.8-4.168-10.512-10.138h0s-.156-.888-.363-2.805l-10.335-6.14a10.17,10.17,0,0,1-3.964-13.037,8.664,8.664,0,0,1,7.777-4.843,9.252,9.252,0,0,1,4.713,1.32l2.744,1.63a11.125,11.125,0,0,1,10.492-7.945,11.5,11.5,0,0,1,3.085.429l.2.069c.076.033,7.337,3.132,14.031,3.447l1.241.02,1.6-.034a47.707,47.707,0,0,0,13.642-3.432l.2-.07a11.512,11.512,0,0,1,3.086-.429,11.125,11.125,0,0,1,10.492,7.945l2.743-1.63a9.257,9.257,0,0,1,4.713-1.32,8.665,8.665,0,0,1,7.778,4.843,10.169,10.169,0,0,1-3.965,13.037L449.2,259.161a26.568,26.568,0,0,1-.385,2.9c-.745,5.922-5.051,10.052-10.5,10.052" transform="translate(-5740.966 -5964.003)" fill="#143352"/><path d="M452.1,306.381a5.452,5.452,0,0,0-7.805-2.182l-3.416,2.029c-.793-4.77-4.85-7.568-9.2-6.358,0,0-6.271,2.718-11.848,2.718h-.017v-.007l-.113,0-.113,0v.007h-.017c-5.577,0-11.872-2.718-11.872-2.718-4.35-1.211-8.408,1.587-9.2,6.358l-3.417-2.029a5.451,5.451,0,0,0-7.8,2.182,6.5,6.5,0,0,0,2.549,8.333l8.015,4.761c.1.058.2.1.295.156.189,1.879.335,2.7.335,2.7.59,4.939,4.767,7.717,9.13,6.238,0,0,6.335-2.628,11.957-2.628h.018v.008l.113,0,.113,0,.017-.009c5.623,0,11.957,2.628,11.957,2.628,4.364,1.479,8.54-1.3,9.13-6.238a19.962,19.962,0,0,0,.335-2.7c.1-.051.2-.1.3-.156l8.014-4.761a6.5,6.5,0,0,0,2.55-8.333" transform="translate(-5741.432 -5966.554)" fill="#fff"/><path d="M418.77,325.839c-19.484-3.184-17.261-24.422-17.192-25.042a8.045,8.045,0,0,0-3.353,5.475l-3.416-2.03A5.452,5.452,0,0,0,387,306.425a6.5,6.5,0,0,0,2.55,8.333l8.014,4.761c.1.058.2.1.3.156.188,1.879.335,2.7.335,2.7.59,4.94,4.767,7.718,9.13,6.239,0,0,6.335-2.628,11.957-2.628h.017V326l.113,0,.113,0,.018-.009.113,0q-.423-.078-.89-.154" transform="translate(-5741.422 -5966.598)" fill="#e5ebf5"/><path d="M429.886,340.037c0,2.794-4.188,5.059-9.354,5.059s-9.355-2.265-9.355-5.059,4.188-5.059,9.355-5.059,9.354,2.265,9.354,5.059" transform="translate(-4901.271 -5287.779) rotate(180)" fill="#143352"/><path d="M426.924,340.126c0,1.509-2.809,2.732-6.275,2.732s-6.275-1.222-6.275-2.732,2.81-2.732,6.275-2.732,6.275,1.222,6.275,2.732" transform="translate(-4901.153 -5287.689) rotate(180)" fill="#fff"/><path d="M388.452,306.944a3.973,3.973,0,0,1,3.607-2.257,4.456,4.456,0,0,1,2.265.642l5.146,3.057.33-1.984c.546-3.284,2.887-5.49,5.824-5.49a6.165,6.165,0,0,1,1.555.2c.678.286,6.792,2.8,12.353,2.8h.245c.135,0,.27,0,.4,0l.517,0,.212-.016v-.009a37.9,37.9,0,0,0,11.154-2.756,6.161,6.161,0,0,1,1.582-.212c2.937,0,5.278,2.206,5.824,5.49l.329,1.984,5.146-3.057a4.46,4.46,0,0,1,2.266-.642,3.974,3.974,0,0,1,3.607,2.256,5.106,5.106,0,0,1-2.021,6.536l-8.015,4.76c-.031.018-.063.035-.129.069l-.771.4-.064.752a21.548,21.548,0,0,1-.3,2.487l-.032.172c-.381,3.192-2.611,5.422-5.423,5.422a5.848,5.848,0,0,1-1.814-.292,39.162,39.162,0,0,0-11.579-2.712l-1.167-.021c-5.9,0-12.35,2.679-12.4,2.7a5.932,5.932,0,0,1-1.9.324c-2.811,0-5.045-2.257-5.435-5.5,0-.008-.141-.8-.321-2.6l-.074-.739-.782-.408c-.036-.017-.07-.035-.106-.056l-8.014-4.76a5.1,5.1,0,0,1-2.021-6.535m64.824-1.23a6.76,6.76,0,0,0-6.068-3.778,7.2,7.2,0,0,0-3.67,1.028l-1.85,1.1a8.593,8.593,0,0,0-8.044-5.9,8.889,8.889,0,0,0-2.4.337l-.165.059a35.97,35.97,0,0,1-10.228,2.575l-1.2.025-.931-.015a35.676,35.676,0,0,1-10.544-2.591l-.162-.058a8.926,8.926,0,0,0-2.389-.331,8.593,8.593,0,0,0-8.044,5.9l-1.85-1.1a7.2,7.2,0,0,0-3.67-1.028,6.759,6.759,0,0,0-6.068,3.778,7.9,7.9,0,0,0,3.077,10.13l7.72,4.586a17.987,17.987,0,0,0,.272,2.015h-.009c.552,4.621,3.906,7.849,8.155,7.849a8.727,8.727,0,0,0,2.869-.5,36.874,36.874,0,0,1,10.931-2.514h.516c.04,0,.081,0,.1,0,.04,0,.079,0,.128,0l.206-.007c4.982.058,10.663,2.29,11.321,2.554a8.654,8.654,0,0,0,2.783.47c4.22,0,7.57-3.2,8.143-7.764a19.532,19.532,0,0,0,.285-2.108l7.708-4.579a7.9,7.9,0,0,0,3.078-10.13" transform="translate(-5741.38 -5966.501)" fill="#143352"/><path d="M410.263,213.759a6.1,6.1,0,0,0-.692.022l-.945.075c-.1.01-.2.016-.3.024a6.423,6.423,0,0,0-.691.076l-1.43.226c-.122.021-.242.048-.359.076l-.46.1a16.253,16.253,0,0,0-1.641.43l-.3.093c-.208.063-.414.125-.649.205l-.871.327-1.694.736-.821.428c-4.137-1.861-6.068-6.3-6.068-10.495a12.347,12.347,0,0,1,2.642-7.864,9.85,9.85,0,0,1,7.891-3.543c7.237,0,10.533,5.914,10.533,11.407a12.4,12.4,0,0,1-2.508,7.684c-.171-.009-.346-.016-.522-.011Zm6.01.6-.243-.047a16.808,16.808,0,0,0,1.551-7.145c0-10.009-6.844-14.569-13.2-14.569a12.26,12.26,0,0,0-9.917,4.578,15.943,15.943,0,0,0-3.289,9.99c0,5.482,2.062,9.313,4.966,11.67l-.1.088a1.047,1.047,0,0,0-.092,1.418l.048.059a1.046,1.046,0,0,0,1.394.208s.482-.323,1.277-.76l.531-.282c.25-.129.52-.264.832-.412.241-.12.5-.233.769-.351.192-.084.388-.17.525-.234l2.375-.874c.195-.063.393-.119.591-.176l.276-.08c.4-.128.83-.228,1.28-.335l.643-.154c.07-.017.141-.036.2-.046l1.429-.248a4.278,4.278,0,0,1,.492-.066c.109-.012.218-.022.315-.036l.921-.106a4.376,4.376,0,0,1,.474-.036c.1,0,.2-.009.282-.014l.872-.044a9.067,9.067,0,0,1,.971-.014l3.549.16a1.049,1.049,0,0,0,1.1-.882l.011-.072a1.045,1.045,0,0,0-.831-1.187" transform="translate(-5741.598 -5962.624)" fill="#143352"/><path d="M407.626,209.4c-.538.645-1.315.892-1.731.545s-.313-1.152.224-1.8a2.017,2.017,0,0,1,.914-.648,1.167,1.167,0,0,1,.349-.058.709.709,0,0,1,.468.157.845.845,0,0,1,.247.787,2.013,2.013,0,0,1-.471,1.016m-4.289-4.016c-.751,1.521-2.155,2.363-3.13,1.88a1.705,1.705,0,0,1-.848-1.421,4.374,4.374,0,0,1,1.933-3.9,2.058,2.058,0,0,1,1.044-.322,1.327,1.327,0,0,1,.6.136,1.863,1.863,0,0,1,.867,1.764,4.261,4.261,0,0,1-.465,1.864m.767-5.273a5.72,5.72,0,1,0,5.722,5.719,5.726,5.726,0,0,0-5.722-5.719" transform="translate(-5741.863 -5962.9)" fill="#143352"/><path d="M407.985,183.047a1.62,1.62,0,0,0,1.6-.517,1.993,1.993,0,0,0,.526-1.95,5.312,5.312,0,0,0-2.314-3,10.614,10.614,0,0,0-8.972-.906c-6.843,2.044-13.383,9.1-15.287,13.2a1.056,1.056,0,0,0,.279,1.234.977.977,0,0,0,.648.258.877.877,0,0,0,.46-.131,3.677,3.677,0,0,0,.9-.805l.066-.074c6.267-7.064,13.907-9.592,22.091-7.31" transform="translate(-5741.314 -5962.018)" fill="#143352"/><path d="M443.409,206.136a1.705,1.705,0,0,1-.848,1.421c-.975.483-2.378-.359-3.129-1.88a4.263,4.263,0,0,1-.466-1.864,1.862,1.862,0,0,1,.867-1.764,1.327,1.327,0,0,1,.6-.136,2.056,2.056,0,0,1,1.044.322,4.374,4.374,0,0,1,1.933,3.9m-6.536,4.1c-.415.347-1.194.1-1.731-.545a2.012,2.012,0,0,1-.471-1.016.845.845,0,0,1,.247-.787.709.709,0,0,1,.468-.158,1.17,1.17,0,0,1,.349.059,2.017,2.017,0,0,1,.914.648c.537.647.64,1.456.224,1.8m1.792-9.834a5.72,5.72,0,1,0,5.722,5.719,5.726,5.726,0,0,0-5.722-5.719" transform="translate(-5743.132 -5962.911)" fill="#143352"/><path d="M458.643,190.167c-1.905-4.1-8.445-11.16-15.288-13.2a10.617,10.617,0,0,0-8.972.906,5.313,5.313,0,0,0-2.314,3,2,2,0,0,0,.525,1.95,1.625,1.625,0,0,0,1.606.517c8.183-2.282,15.823.246,22.09,7.309l.066.075a3.686,3.686,0,0,0,.9.8.875.875,0,0,0,.461.132.977.977,0,0,0,.648-.258,1.059,1.059,0,0,0,.28-1.234" transform="translate(-5743.097 -5972.029)" fill="#143352"/><path d="M442.785,216.872l-.821-.428-1.694-.735-.871-.328c-.235-.08-.441-.143-.649-.205l-.3-.093a16.508,16.508,0,0,0-1.641-.43l-.459-.1c-.118-.028-.237-.055-.359-.076l-1.43-.226a6.42,6.42,0,0,0-.691-.076c-.1-.007-.2-.014-.3-.024l-.945-.075a6.323,6.323,0,0,0-.692-.022h-1.117c-.176,0-.351,0-.522.011a12.4,12.4,0,0,1-2.508-7.684c0-5.494,3.3-11.407,10.533-11.407a9.85,9.85,0,0,1,7.891,3.543,12.347,12.347,0,0,1,2.642,7.864c0,4.2-1.93,8.634-6.068,10.495m-4.965-23.985c-6.361,0-13.2,4.559-13.2,14.569a16.809,16.809,0,0,0,1.551,7.145l-.243.047a1.045,1.045,0,0,0-.831,1.187l.011.072a1.048,1.048,0,0,0,1.1.882l3.549-.16a8.82,8.82,0,0,1,.971.015l.872.043c.079.006.18.011.282.014a4.406,4.406,0,0,1,.474.036l.921.107c.1.013.206.023.315.035a4.284,4.284,0,0,1,.492.066l1.429.248c.06.012.13.029.2.047l.643.154c.45.106.876.207,1.28.334l.276.08c.2.057.4.114.59.177l2.376.873c.137.065.333.15.524.234.27.118.529.231.77.351.312.148.583.283.832.413l.531.281c.8.438,1.273.757,1.277.76a1.046,1.046,0,0,0,1.394-.208l.048-.059a1.047,1.047,0,0,0-.093-1.418l-.1-.088c2.9-2.356,4.966-6.187,4.966-11.67a15.943,15.943,0,0,0-3.289-9.99,12.259,12.259,0,0,0-9.917-4.578" transform="translate(-5742.827 -5962.635)" fill="#143352"/></g></svg>