<svg xmlns="http://www.w3.org/2000/svg" width="290.033" height="56.03" viewBox="0 0 290.033 56.03">
  <g id="Group_568" data-name="Group 568" transform="translate(-165 -59)">
    <g id="Group_332" data-name="Group 332" transform="translate(-127.55)">
      <g id="Group_329" data-name="Group 329" transform="translate(313 7554)">
        <path id="Path_270" data-name="Path 270" d="M439.938,274.63a28.015,28.015,0,1,1-28.015-28.015,28.015,28.015,0,0,1,28.015,28.015" transform="translate(-404.358 -7741.615)" fill="#66abe3"/>
        <path id="Path_271" data-name="Path 271" d="M456.545,269.566a4.384,4.384,0,0,0-6.275-1.755l-2.747,1.632c-.638-3.835-3.9-6.085-7.4-5.112a28.422,28.422,0,0,1-9.527,2.186h-.014v-.005l-.091,0-.09,0v.005h-.015a28.586,28.586,0,0,1-9.545-2.186c-3.5-.973-6.76,1.277-7.4,5.112l-2.747-1.632a4.384,4.384,0,0,0-6.275,1.755,5.222,5.222,0,0,0,2.05,6.7l6.443,3.828c.079.046.159.084.238.125.151,1.511.269,2.175.269,2.175.475,3.97,3.833,6.2,7.341,5.016a29.742,29.742,0,0,1,9.614-2.113h.014v.006c.03,0,.061,0,.091,0s.06,0,.09,0l.015-.006a29.75,29.75,0,0,1,9.614,2.113c3.507,1.189,6.866-1.046,7.34-5.016a16.137,16.137,0,0,0,.27-2.175c.079-.041.159-.079.237-.125l6.444-3.828a5.223,5.223,0,0,0,2.05-6.7" transform="translate(-404.358 -7741.615)" fill="#fff"/>
        <path id="Path_272" data-name="Path 272" d="M429.757,285.175c-15.666-2.56-13.878-19.636-13.822-20.134a6.462,6.462,0,0,0-2.7,4.4l-2.747-1.632a4.384,4.384,0,0,0-6.275,1.755,5.224,5.224,0,0,0,2.049,6.7l6.444,3.827c.079.047.159.085.238.126.151,1.511.27,2.174.27,2.174.474,3.971,3.832,6.2,7.34,5.016a29.753,29.753,0,0,1,9.614-2.112h.014v.006l.091,0c.03,0,.06,0,.09,0l.015-.006.091,0q-.34-.063-.716-.124" transform="translate(-404.358 -7741.615)" fill="#e5ebf5"/>
        <path id="Path_273" data-name="Path 273" d="M437.962,295.581c0,2.246-3.367,4.068-7.521,4.068s-7.522-1.822-7.522-4.068,3.368-4.068,7.522-4.068,7.521,1.822,7.521,4.068" transform="translate(-404.358 -7741.615)" fill="#143352"/>
        <path id="Path_274" data-name="Path 274" d="M435.486,295.581c0,1.213-2.259,2.2-5.045,2.2s-5.045-.984-5.045-2.2,2.259-2.2,5.045-2.2,5.045.984,5.045,2.2" transform="translate(-404.358 -7741.615)" fill="#fff"/>
        <path id="Path_275" data-name="Path 275" d="M437.962,256.381c0,2.247-3.367,4.068-7.521,4.068s-7.522-1.821-7.522-4.068,3.368-4.068,7.522-4.068,7.521,1.822,7.521,4.068" transform="translate(-404.358 -7741.615)" fill="#143352"/>
        <path id="Path_276" data-name="Path 276" d="M435.486,256.381c0,1.213-2.259,2.2-5.045,2.2s-5.045-.984-5.045-2.2,2.259-2.2,5.045-2.2,5.045.984,5.045,2.2" transform="translate(-404.358 -7741.615)" fill="#fff"/>
        <path id="Path_277" data-name="Path 277" d="M431.315,284.378a31.387,31.387,0,0,1,9.247,2.168,4.889,4.889,0,0,0,1.523.248c2.35,0,4.213-1.855,4.53-4.511l.024-.126a17.225,17.225,0,0,0,.243-2.017l.043-.511.536-.28c.037-.018.075-.037.111-.059l6.445-3.828a4.279,4.279,0,0,0,1.691-5.478,3.36,3.36,0,0,0-3.052-1.908,3.747,3.747,0,0,0-1.909.539l-3.922,2.331-.224-1.35c-.454-2.725-2.4-4.556-4.852-4.556a5.068,5.068,0,0,0-1.315.177,30.023,30.023,0,0,1-9.1,2.218v.012l-.416,0c-.109,0-.216,0-.324,0h-.2a29.093,29.093,0,0,1-9.866-2.235,5.081,5.081,0,0,0-1.316-.177c-2.448,0-4.4,1.831-4.851,4.556l-.224,1.35-3.923-2.331a3.747,3.747,0,0,0-1.909-.539,3.36,3.36,0,0,0-3.052,1.908,4.278,4.278,0,0,0,1.691,5.478l6.444,3.828c.037.022.074.04.111.059l.529.276.05.5c.145,1.444.259,2.1.26,2.1.325,2.708,2.188,4.564,4.538,4.564a4.929,4.929,0,0,0,1.582-.27,30.245,30.245,0,0,1,9.914-2.162Zm10.771,4.286h0a6.809,6.809,0,0,1-2.182-.368,29.39,29.39,0,0,0-9.154-2.063l-.174.005h-.6a29.634,29.634,0,0,0-8.856,2.036,6.856,6.856,0,0,1-2.24.39c-3.327,0-5.954-2.533-6.387-6.16h0s-.1-.54-.221-1.705L406,277.07a6.179,6.179,0,0,1-2.409-7.922,5.265,5.265,0,0,1,4.725-2.943,5.624,5.624,0,0,1,2.864.8l1.668.991a6.76,6.76,0,0,1,6.375-4.828,6.963,6.963,0,0,1,1.875.261l.12.042a28.927,28.927,0,0,0,8.525,2.094l.754.012.971-.021a28.977,28.977,0,0,0,8.289-2.085l.12-.042a6.963,6.963,0,0,1,1.875-.261A6.76,6.76,0,0,1,448.125,268l1.667-.991a5.624,5.624,0,0,1,2.864-.8,5.264,5.264,0,0,1,4.725,2.943,6.179,6.179,0,0,1-2.408,7.922L448.7,280.8a16.024,16.024,0,0,1-.235,1.761c-.452,3.6-3.069,6.108-6.38,6.108" transform="translate(-404.358 -7741.615)" fill="#143352"/>
      </g>
    </g>
    <path id="Path_344" data-name="Path 344" d="M12.524-12.747v.928l-1.1.093-.306.306V-1.364l.232.223H12.71v4.37H11.346L10.808.269,10.511,0H2.106l-.3.269L1.271,3.229H-.093v-4.37H.928a18.513,18.513,0,0,0,1.5-2.449,20.615,20.615,0,0,0,1.127-2.7A20.643,20.643,0,0,0,4.36-9.129q.26-1.3.371-2.273l-.306-.306-1.6-.111v-.928ZM8.609-1.141V-11.606H6.216q-.158,1.354-.5,2.95-.167.807-.385,1.582T4.843-5.548a20.023,20.023,0,0,1-1.03,2.4A21.589,21.589,0,0,1,2.644-1.141ZM18.657-8.47a1.8,1.8,0,0,0-1.624.993,5.515,5.515,0,0,0-.584,2.783,5.73,5.73,0,0,0,.58,2.83,1.784,1.784,0,0,0,1.61,1.011A1.835,1.835,0,0,0,20.3-1.837a5.528,5.528,0,0,0,.584-2.8,5.632,5.632,0,0,0-.589-2.82A1.817,1.817,0,0,0,18.657-8.47Zm.074-1.011A4.637,4.637,0,0,1,22.21-8.159,4.9,4.9,0,0,1,23.5-4.583,4.553,4.553,0,0,1,22.154-1.15a4.925,4.925,0,0,1-3.572,1.3,4.672,4.672,0,0,1-3.456-1.313A4.672,4.672,0,0,1,13.814-4.62a4.744,4.744,0,0,1,1.345-3.53A4.856,4.856,0,0,1,18.731-9.481ZM24.6-.854l1.011-.093.269-.269V-8.034L25.615-8.3,24.6-8.4V-9.25h4.852V-8.4l-.974.093-.269.269v2.672h1.067a.956.956,0,0,0,.714-.264,2.078,2.078,0,0,0,.427-.663l.612-1.345a5.936,5.936,0,0,1,.38-.728,2.776,2.776,0,0,1,.45-.561,1.835,1.835,0,0,1,.538-.357,1.62,1.62,0,0,1,.645-.125,2.745,2.745,0,0,1,.431.042,1.422,1.422,0,0,1,.487.176,1.144,1.144,0,0,1,.394.394,1.322,1.322,0,0,1,.162.705,1.414,1.414,0,0,1-.25.807,1.031,1.031,0,0,1-.807.445l-1.2-.8a.878.878,0,0,0-.158.237q-.056.125-.13.274l-.566,1.29a3.084,3.084,0,0,1-.32.515,1.341,1.341,0,0,1-.617.422v.037a1.959,1.959,0,0,1,1.132.547,5.3,5.3,0,0,1,.408.455,3.445,3.445,0,0,1,.306.455l1.141,2.189.3.232,1.03.13V0H31.144V-.612l-1.1-2.811a1.415,1.415,0,0,0-.464-.608,1.26,1.26,0,0,0-.807-.264h-.557v3.08l.269.269.974.093V0H24.6Zm12.812,0L38.51-.946l.269-.269V-8.192H37.2l-.288.306-.223,1.9H35.4V-9.25h9.1v3.266H43.2l-.223-1.9-.288-.306H41.117v6.977l.288.269,1.076.093V0H37.416ZM50.459-8.47a1.8,1.8,0,0,0-1.624.993,5.515,5.515,0,0,0-.584,2.783,5.73,5.73,0,0,0,.58,2.83,1.784,1.784,0,0,0,1.61,1.011A1.835,1.835,0,0,0,52.1-1.837a5.528,5.528,0,0,0,.584-2.8,5.632,5.632,0,0,0-.589-2.82A1.817,1.817,0,0,0,50.459-8.47Zm.074-1.011a4.637,4.637,0,0,1,3.479,1.322A4.9,4.9,0,0,1,55.3-4.583,4.553,4.553,0,0,1,53.957-1.15a4.925,4.925,0,0,1-3.572,1.3,4.672,4.672,0,0,1-3.456-1.313A4.672,4.672,0,0,1,45.617-4.62a4.744,4.744,0,0,1,1.345-3.53A4.856,4.856,0,0,1,50.534-9.481Zm9.389,8.34a6.049,6.049,0,0,0,.608.1,5.671,5.671,0,0,0,.608.032A2.427,2.427,0,0,0,63.174-2a4.3,4.3,0,0,0,.756-2.672,3.675,3.675,0,0,0-.663-2.333,2.216,2.216,0,0,0-1.842-.84,2.894,2.894,0,0,0-.673.088,6.139,6.139,0,0,0-.83.274ZM56.313,4.166V3.284l1.03-.093L57.6,2.9V-7.774h-1.29v-.761l2.755-.891h.854v1.141a8.4,8.4,0,0,1,1.624-.909,3.741,3.741,0,0,1,1.382-.288A3.167,3.167,0,0,1,65.5-8.215,4.96,4.96,0,0,1,66.519-5a4.912,4.912,0,0,1-1.364,3.641A4.974,4.974,0,0,1,61.481,0q-.39,0-.775-.023t-.775-.07l-.009,3.034.288.269,1.178.074v.881Zm30.1-16.913v.928l-1.1.093L85-11.42V-1.327l.306.3,1.1.1V0H81.047V-.928l1.16-.1.288-.3V-11.606H77.132V-1.327l.306.3,1.141.1V0H73.217V-.928l1.1-.1.306-.3V-11.42l-.306-.306-1.1-.093v-.928ZM92.542-8.47a1.8,1.8,0,0,0-1.624.993,5.515,5.515,0,0,0-.584,2.783,5.73,5.73,0,0,0,.58,2.83,1.784,1.784,0,0,0,1.61,1.011,1.835,1.835,0,0,0,1.661-.983,5.528,5.528,0,0,0,.584-2.8,5.632,5.632,0,0,0-.589-2.82A1.817,1.817,0,0,0,92.542-8.47Zm.074-1.011a4.637,4.637,0,0,1,3.479,1.322,4.9,4.9,0,0,1,1.29,3.576A4.553,4.553,0,0,1,96.039-1.15a4.925,4.925,0,0,1-3.572,1.3,4.672,4.672,0,0,1-3.456-1.313A4.672,4.672,0,0,1,87.7-4.62a4.744,4.744,0,0,1,1.345-3.53A4.856,4.856,0,0,1,92.616-9.481Zm8.025,4.1a2.416,2.416,0,0,0,.441.056q.237.009.45.009a2.63,2.63,0,0,0,.64-.079,1.632,1.632,0,0,0,.566-.26,1.351,1.351,0,0,0,.4-.469,1.507,1.507,0,0,0,.153-.714,1.481,1.481,0,0,0-.482-1.225,1.771,1.771,0,0,0-1.132-.39,3.757,3.757,0,0,0-.571.056,3.138,3.138,0,0,0-.793.26l-.232.213L99.9-6.494H98.757V-9.027a12.168,12.168,0,0,1,1.354-.32,9.532,9.532,0,0,1,1.688-.135q.158,0,.4.014l.566.032a3.912,3.912,0,0,1,.649.093,5.178,5.178,0,0,1,.649.195,3.043,3.043,0,0,1,1.141.733,1.843,1.843,0,0,1,.492,1.364,1.8,1.8,0,0,1-.186.84,2,2,0,0,1-.487.612,2.825,2.825,0,0,1-.691.427,5.074,5.074,0,0,1-.789.274v.037a4.031,4.031,0,0,1,.914.186,2.881,2.881,0,0,1,.826.417,2.157,2.157,0,0,1,.6.673,1.9,1.9,0,0,1,.232.96,2.188,2.188,0,0,1-.278,1.136,2.485,2.485,0,0,1-.714.775,3.8,3.8,0,0,1-.969.487,6.608,6.608,0,0,1-1.034.264,8.479,8.479,0,0,1-.923.107q-.422.023-.626.023a13.008,13.008,0,0,1-1.3-.083,11.27,11.27,0,0,1-1.781-.353V-3.08h1.16l.213,1.633.186.213a6.053,6.053,0,0,0,.622.246,2.755,2.755,0,0,0,.9.135q.074,0,.223-.014l.362-.032a1.419,1.419,0,0,0,.789-.334,1.335,1.335,0,0,0,.274-.306,1.6,1.6,0,0,0,.167-.343,1.814,1.814,0,0,0,.083-.357,2.737,2.737,0,0,0,.023-.348,2.052,2.052,0,0,0-.19-.96,1.494,1.494,0,0,0-.459-.543,1.411,1.411,0,0,0-.566-.237,2.554,2.554,0,0,0-.529-.042,3.85,3.85,0,0,0-.575.046q-.306.046-.529.083ZM112.608-9.25a5.77,5.77,0,0,1,1.735.195q.3.093.492.172a1.916,1.916,0,0,1,.3.144,1.682,1.682,0,0,1,.668.724,2.259,2.259,0,0,1,.186.928,1.894,1.894,0,0,1-.566,1.41,2.792,2.792,0,0,1-1.41.714v.046a4.985,4.985,0,0,1,.891.158,2.432,2.432,0,0,1,.8.376,1.91,1.91,0,0,1,.571.668,2.2,2.2,0,0,1,.218,1.034,2.646,2.646,0,0,1-.111.8,2.392,2.392,0,0,1-.3.626,2.025,2.025,0,0,1-.445.473,3.15,3.15,0,0,1-.547.339,3.859,3.859,0,0,1-1.234.362A9.3,9.3,0,0,1,112.7,0h-5.474V-.854l1.011-.093.269-.269V-8.034l-.269-.269L107.153-8.4V-9.25Zm-1.772,3.887a3.244,3.244,0,0,0,.431.037q.274.009.543.009a4.219,4.219,0,0,0,.58-.046,1.838,1.838,0,0,0,.622-.2,1.417,1.417,0,0,0,.5-.455,1.386,1.386,0,0,0,.2-.8,1.173,1.173,0,0,0-.529-1.085,2.263,2.263,0,0,0-1.225-.325q-.26,0-.547.019t-.575.056Zm0,4.221a5.528,5.528,0,0,0,1.123.111,4.205,4.205,0,0,0,.789-.074,1.42,1.42,0,0,0,.714-.38,1.184,1.184,0,0,0,.26-.32,1.67,1.67,0,0,0,.139-.334,1.713,1.713,0,0,0,.06-.315q.014-.153.014-.264a1.966,1.966,0,0,0-.093-.6,1.4,1.4,0,0,0-.311-.529,1.543,1.543,0,0,0-.589-.38,2.587,2.587,0,0,0-.928-.144q-.195,0-.38.009l-.348.019q-.162.009-.278.023t-.172.023ZM122.8-8.47a1.8,1.8,0,0,0-1.624.993,5.515,5.515,0,0,0-.584,2.783,5.73,5.73,0,0,0,.58,2.83,1.784,1.784,0,0,0,1.61,1.011,1.835,1.835,0,0,0,1.661-.983,5.528,5.528,0,0,0,.584-2.8,5.632,5.632,0,0,0-.589-2.82A1.817,1.817,0,0,0,122.8-8.47Zm.074-1.011a4.637,4.637,0,0,1,3.479,1.322,4.9,4.9,0,0,1,1.29,3.576A4.553,4.553,0,0,1,126.3-1.15a4.925,4.925,0,0,1-3.572,1.3,4.672,4.672,0,0,1-3.456-1.313,4.672,4.672,0,0,1-1.313-3.456,4.744,4.744,0,0,1,1.345-3.53A4.856,4.856,0,0,1,122.878-9.481Zm5.873,8.628,1.011-.093.269-.269V-8.034l-.269-.269L128.751-8.4V-9.25H133.6V-8.4l-.974.093-.269.269v2.672h3.618V-8.034l-.269-.269-.974-.093V-9.25h4.852V-8.4l-1.011.093-.269.269v6.819l.269.269,1.011.093V0h-4.852V-.854l.974-.093.269-.269V-4.3H132.36v3.08l.269.269.974.093V0h-4.852Zm11.894,0,1.011-.093.269-.269V-8.034l-.269-.269L140.645-8.4V-9.25H145.5V-8.4l-.974.093-.269.269v2.672h1.067a.956.956,0,0,0,.714-.264,2.078,2.078,0,0,0,.427-.663l.612-1.345a5.936,5.936,0,0,1,.38-.728,2.776,2.776,0,0,1,.45-.561,1.835,1.835,0,0,1,.538-.357,1.62,1.62,0,0,1,.645-.125,2.745,2.745,0,0,1,.431.042,1.422,1.422,0,0,1,.487.176,1.144,1.144,0,0,1,.394.394,1.322,1.322,0,0,1,.162.705,1.414,1.414,0,0,1-.25.807,1.031,1.031,0,0,1-.807.445l-1.2-.8a.878.878,0,0,0-.158.237q-.056.125-.13.274l-.566,1.29a3.083,3.083,0,0,1-.32.515,1.341,1.341,0,0,1-.617.422v.037a1.959,1.959,0,0,1,1.132.547,5.3,5.3,0,0,1,.408.455,3.446,3.446,0,0,1,.306.455L149.5-1.215l.3.232,1.03.13V0h-3.646V-.612l-1.1-2.811a1.415,1.415,0,0,0-.464-.608,1.26,1.26,0,0,0-.807-.264h-.557v3.08l.269.269.974.093V0h-4.852ZM156.379-8.47a1.8,1.8,0,0,0-1.624.993,5.515,5.515,0,0,0-.584,2.783,5.73,5.73,0,0,0,.58,2.83,1.784,1.784,0,0,0,1.61,1.011,1.835,1.835,0,0,0,1.661-.983,5.528,5.528,0,0,0,.584-2.8,5.632,5.632,0,0,0-.589-2.82A1.817,1.817,0,0,0,156.379-8.47Zm.074-1.011a4.637,4.637,0,0,1,3.479,1.322,4.9,4.9,0,0,1,1.29,3.576,4.553,4.553,0,0,1-1.345,3.433A4.925,4.925,0,0,1,156.3.148a4.672,4.672,0,0,1-3.456-1.313,4.672,4.672,0,0,1-1.313-3.456,4.744,4.744,0,0,1,1.345-3.53A4.856,4.856,0,0,1,156.453-9.481Zm13.814-4.555V-9.25h.167a7.153,7.153,0,0,1,1.392.121,6.12,6.12,0,0,1,1.058.3,3.908,3.908,0,0,1,.765.394,4.869,4.869,0,0,1,.515.4,4.072,4.072,0,0,1,.482.543,3.772,3.772,0,0,1,.431.751,5.181,5.181,0,0,1,.311.983,5.821,5.821,0,0,1,.121,1.239,4.835,4.835,0,0,1-.427,2.152,3.951,3.951,0,0,1-1.123,1.4,4.273,4.273,0,0,1-1.573.747A7.335,7.335,0,0,1,170.61,0h-.343V2.922l.288.269,1.076.093v.854h-5.065V3.284l1.095-.093.269-.269V0h-.343a7.41,7.41,0,0,1-1.777-.218,4.268,4.268,0,0,1-1.582-.747,3.935,3.935,0,0,1-.626-.617,3.765,3.765,0,0,1-.487-.784,4.39,4.39,0,0,1-.315-.974,5.821,5.821,0,0,1-.111-1.178,5.821,5.821,0,0,1,.121-1.239,5.181,5.181,0,0,1,.311-.983,3.772,3.772,0,0,1,.431-.751,4.072,4.072,0,0,1,.482-.543,3.446,3.446,0,0,1,.5-.4,4.006,4.006,0,0,1,.775-.394,6.238,6.238,0,0,1,1.067-.3,7.171,7.171,0,0,1,1.387-.121h.167v-3.136h-1.364v-.742l2.867-.909ZM168-8.229h-.074a2.443,2.443,0,0,0-1.359.348,2.53,2.53,0,0,0-.84.9,3.8,3.8,0,0,0-.422,1.22,7.771,7.771,0,0,0-.116,1.322q0,.269.023.571t.07.626a2.879,2.879,0,0,0,.482,1.2,2.293,2.293,0,0,0,.482.538,2.1,2.1,0,0,0,.533.311,2.235,2.235,0,0,0,.529.139,3.733,3.733,0,0,0,.469.032H168Zm2.189,7.2h.223a3.672,3.672,0,0,0,.459-.032A2.235,2.235,0,0,0,171.4-1.2a2.178,2.178,0,0,0,.538-.311,2.24,2.24,0,0,0,.487-.538,2.983,2.983,0,0,0,.473-1.2q.046-.325.074-.626T173-4.444a7.481,7.481,0,0,0-.121-1.322,3.883,3.883,0,0,0-.427-1.22,2.545,2.545,0,0,0-.835-.9,2.42,2.42,0,0,0-1.354-.348h-.074Z" transform="translate(247 83)" fill="#143352"/>
    <path id="Path_345" data-name="Path 345" d="M3.7-6.929v-1.01h.978v1.01a3.606,3.606,0,0,1,2.374.905,2.708,2.708,0,0,1,.87,2.049,2.762,2.762,0,0,1-.843,2.036,3.553,3.553,0,0,1-2.4.924V0H3.7V-1.015A3.672,3.672,0,0,1,1.37-1.866,2.642,2.642,0,0,1,.44-3.975,2.627,2.627,0,0,1,1.367-6.08,3.717,3.717,0,0,1,3.7-6.929Zm.978.892v4.125A2.429,2.429,0,0,0,6.263-2.5a1.914,1.914,0,0,0,.58-1.477,1.921,1.921,0,0,0-.569-1.464A2.449,2.449,0,0,0,4.673-6.037ZM3.7-6.032a2.461,2.461,0,0,0-1.574.575,1.875,1.875,0,0,0-.6,1.482A1.891,1.891,0,0,0,2.114-2.5a2.433,2.433,0,0,0,1.582.58Zm9.3,4.195,1,.124a2.437,2.437,0,0,1-.875,1.359,2.632,2.632,0,0,1-1.633.483A2.609,2.609,0,0,1,9.5-.642,3.012,3.012,0,0,1,8.766-2.8a3.152,3.152,0,0,1,.741-2.234,2.509,2.509,0,0,1,1.923-.795,2.439,2.439,0,0,1,1.869.779,3.094,3.094,0,0,1,.725,2.191q0,.086-.005.258H9.765A2.192,2.192,0,0,0,10.3-1.166a1.583,1.583,0,0,0,1.192.5A1.479,1.479,0,0,0,12.4-.945,1.854,1.854,0,0,0,12.993-1.837ZM9.818-3.4H13a1.932,1.932,0,0,0-.365-1.08,1.482,1.482,0,0,0-1.2-.559,1.536,1.536,0,0,0-1.12.446A1.764,1.764,0,0,0,9.818-3.4Zm5.908-2.3H19.7V-.795h.618V1.617h-.795V0h-4.49V1.617h-.795V-.795h.51Q15.77-2.181,15.727-5.7Zm.806.8a9.408,9.408,0,0,1-.859,4.109H18.74V-4.9Zm8.755,3.067,1,.124a2.437,2.437,0,0,1-.875,1.359,2.632,2.632,0,0,1-1.633.483,2.609,2.609,0,0,1-1.985-.771A3.012,3.012,0,0,1,21.06-2.8,3.152,3.152,0,0,1,21.8-5.038a2.509,2.509,0,0,1,1.923-.795,2.439,2.439,0,0,1,1.869.779,3.094,3.094,0,0,1,.725,2.191q0,.086-.005.258H22.059a2.192,2.192,0,0,0,.532,1.439,1.583,1.583,0,0,0,1.192.5,1.479,1.479,0,0,0,.908-.279A1.854,1.854,0,0,0,25.287-1.837ZM22.113-3.4H25.3a1.932,1.932,0,0,0-.365-1.08,1.482,1.482,0,0,0-1.2-.559,1.536,1.536,0,0,0-1.12.446A1.764,1.764,0,0,0,22.113-3.4ZM27.5,2.186V-5.7h.881v.741a2.171,2.171,0,0,1,.7-.653,1.933,1.933,0,0,1,.951-.218,2.254,2.254,0,0,1,1.289.376A2.307,2.307,0,0,1,32.167-4.4a3.873,3.873,0,0,1,.285,1.5,3.813,3.813,0,0,1-.314,1.576,2.369,2.369,0,0,1-.913,1.074,2.344,2.344,0,0,1-1.26.373,1.819,1.819,0,0,1-.867-.2,1.975,1.975,0,0,1-.631-.516V2.186Zm.875-5.006a2.481,2.481,0,0,0,.446,1.627,1.367,1.367,0,0,0,1.08.526A1.4,1.4,0,0,0,31-1.211,2.587,2.587,0,0,0,31.464-2.9a2.52,2.52,0,0,0-.448-1.633,1.35,1.35,0,0,0-1.072-.542,1.392,1.392,0,0,0-1.093.577A2.583,2.583,0,0,0,28.375-2.82ZM37.34-.7a3.6,3.6,0,0,1-1.034.645A2.988,2.988,0,0,1,35.24.129,2.074,2.074,0,0,1,33.795-.33a1.516,1.516,0,0,1-.5-1.174,1.561,1.561,0,0,1,.191-.765,1.578,1.578,0,0,1,.5-.556,2.349,2.349,0,0,1,.7-.317,6.908,6.908,0,0,1,.859-.145,8.837,8.837,0,0,0,1.724-.333q.005-.2.005-.252a1.067,1.067,0,0,0-.274-.833,1.618,1.618,0,0,0-1.1-.328,1.707,1.707,0,0,0-1.007.239,1.46,1.46,0,0,0-.481.846l-.945-.129a2.342,2.342,0,0,1,.424-.98,1.86,1.86,0,0,1,.854-.575,3.809,3.809,0,0,1,1.294-.2,3.426,3.426,0,0,1,1.187.172,1.564,1.564,0,0,1,.671.432,1.521,1.521,0,0,1,.3.658,5.444,5.444,0,0,1,.048.892V-2.39A13.682,13.682,0,0,0,38.3-.685,2.151,2.151,0,0,0,38.543,0h-1.01A2.05,2.05,0,0,1,37.34-.7Zm-.081-2.159A7.093,7.093,0,0,1,35.68-2.5a3.653,3.653,0,0,0-.843.193.841.841,0,0,0-.381.314.825.825,0,0,0-.134.459.823.823,0,0,0,.293.645,1.259,1.259,0,0,0,.857.258,1.994,1.994,0,0,0,.994-.244,1.5,1.5,0,0,0,.639-.669,2.335,2.335,0,0,0,.156-.967ZM40.208-5.7H44.7V0h-.961V-4.9H41.175v2.841A8.253,8.253,0,0,1,41.11-.752a.953.953,0,0,1-.354.553,1.3,1.3,0,0,1-.838.236q-.338,0-.779-.043V-.811h.424a1.074,1.074,0,0,0,.43-.062.316.316,0,0,0,.172-.2,4.67,4.67,0,0,0,.043-.875Zm5.93,0H47.1v2.229h1.225a3.131,3.131,0,0,1,1.845.465,1.491,1.491,0,0,1,.647,1.281,1.617,1.617,0,0,1-.54,1.222A2.463,2.463,0,0,1,48.555,0H46.138ZM47.1-.795H48.12a2.787,2.787,0,0,0,1.311-.226.755.755,0,0,0,.392-.7.91.91,0,0,0-.29-.661,1.928,1.928,0,0,0-1.284-.29H47.1ZM51.89-5.7h.967V-3.33h2.68V-5.7H56.5V0h-.967V-2.53h-2.68V0H51.89Zm9.792,5a3.6,3.6,0,0,1-1.034.645,2.988,2.988,0,0,1-1.066.188A2.074,2.074,0,0,1,58.137-.33a1.516,1.516,0,0,1-.5-1.174,1.561,1.561,0,0,1,.191-.765,1.578,1.578,0,0,1,.5-.556,2.349,2.349,0,0,1,.7-.317,6.908,6.908,0,0,1,.859-.145A8.837,8.837,0,0,0,61.6-3.62q.005-.2.005-.252a1.067,1.067,0,0,0-.274-.833,1.618,1.618,0,0,0-1.1-.328,1.707,1.707,0,0,0-1.007.239,1.46,1.46,0,0,0-.481.846L57.8-4.077a2.342,2.342,0,0,1,.424-.98,1.86,1.86,0,0,1,.854-.575,3.809,3.809,0,0,1,1.294-.2,3.426,3.426,0,0,1,1.187.172,1.564,1.564,0,0,1,.671.432,1.521,1.521,0,0,1,.3.658,5.444,5.444,0,0,1,.048.892V-2.39A13.682,13.682,0,0,0,62.64-.685,2.151,2.151,0,0,0,62.885,0h-1.01A2.05,2.05,0,0,1,61.682-.7ZM61.6-2.863a7.093,7.093,0,0,1-1.579.365,3.653,3.653,0,0,0-.843.193.841.841,0,0,0-.381.314.825.825,0,0,0-.134.459.823.823,0,0,0,.293.645,1.259,1.259,0,0,0,.857.258,1.994,1.994,0,0,0,.994-.244,1.5,1.5,0,0,0,.639-.669,2.335,2.335,0,0,0,.156-.967ZM68.567-5.7V0h-.961V-2.224h-.559a1.692,1.692,0,0,0-.76.132,2.827,2.827,0,0,0-.728.846L64.716,0h-1.2l1.042-1.536a1.666,1.666,0,0,1,.951-.795,1.844,1.844,0,0,1-1.227-.6,1.693,1.693,0,0,1-.4-1.112,1.529,1.529,0,0,1,.524-1.2A2.226,2.226,0,0,1,65.925-5.7Zm-.961.8H66.231a1.59,1.59,0,0,0-1.115.269.893.893,0,0,0-.25.628.829.829,0,0,0,.368.749,2.546,2.546,0,0,0,1.3.239h1.069Zm9.206,2.814.951.124a2.466,2.466,0,0,1-.8,1.539,2.324,2.324,0,0,1-1.576.556,2.449,2.449,0,0,1-1.883-.765,3.105,3.105,0,0,1-.712-2.194A3.97,3.97,0,0,1,73.1-4.447a2.135,2.135,0,0,1,.932-1.039,2.765,2.765,0,0,1,1.362-.346,2.367,2.367,0,0,1,1.52.47,2.155,2.155,0,0,1,.757,1.335l-.94.145a1.561,1.561,0,0,0-.475-.865,1.23,1.23,0,0,0-.824-.29,1.5,1.5,0,0,0-1.187.524,2.486,2.486,0,0,0-.457,1.657,2.57,2.57,0,0,0,.44,1.67,1.433,1.433,0,0,0,1.149.521,1.355,1.355,0,0,0,.951-.349A1.733,1.733,0,0,0,76.812-2.089Zm5.683.252,1,.124a2.437,2.437,0,0,1-.875,1.359,2.632,2.632,0,0,1-1.633.483A2.609,2.609,0,0,1,79-.642,3.012,3.012,0,0,1,78.268-2.8a3.152,3.152,0,0,1,.741-2.234,2.509,2.509,0,0,1,1.923-.795,2.439,2.439,0,0,1,1.869.779,3.094,3.094,0,0,1,.725,2.191q0,.086-.005.258H79.267A2.192,2.192,0,0,0,79.8-1.166a1.583,1.583,0,0,0,1.192.5A1.479,1.479,0,0,0,81.9-.945,1.854,1.854,0,0,0,82.495-1.837ZM79.32-3.4h3.185a1.932,1.932,0,0,0-.365-1.08,1.482,1.482,0,0,0-1.2-.559,1.536,1.536,0,0,0-1.12.446A1.764,1.764,0,0,0,79.32-3.4Zm4.5-2.3h4.635v.8H86.62V0h-.961V-4.9H83.821Zm5.543,0h.967v2.229h1.225A3.131,3.131,0,0,1,93.4-3.01a1.491,1.491,0,0,1,.647,1.281,1.617,1.617,0,0,1-.54,1.222A2.463,2.463,0,0,1,91.781,0H89.364Zm.967,4.909h1.015a2.787,2.787,0,0,0,1.311-.226.755.755,0,0,0,.392-.7.91.91,0,0,0-.29-.661,1.928,1.928,0,0,0-1.284-.29H90.331ZM98.194-5.7h1.5l1.5,4.565L102.862-5.7h1.391V0h-.967V-4.592L101.6,0h-.865l-1.6-4.812V0h-.945Zm11.44,3.867,1,.124a2.437,2.437,0,0,1-.875,1.359,2.632,2.632,0,0,1-1.633.483,2.609,2.609,0,0,1-1.985-.771,3.012,3.012,0,0,1-.733-2.162,3.152,3.152,0,0,1,.741-2.234,2.509,2.509,0,0,1,1.923-.795,2.439,2.439,0,0,1,1.869.779,3.094,3.094,0,0,1,.725,2.191q0,.086-.005.258h-4.254a2.192,2.192,0,0,0,.532,1.439,1.583,1.583,0,0,0,1.192.5,1.479,1.479,0,0,0,.908-.279A1.854,1.854,0,0,0,109.635-1.837ZM106.46-3.4h3.185a1.932,1.932,0,0,0-.365-1.08,1.482,1.482,0,0,0-1.2-.559,1.536,1.536,0,0,0-1.12.446A1.764,1.764,0,0,0,106.46-3.4Zm5.908-2.3h3.975V-.795h.618V1.617h-.795V0h-4.49V1.617h-.795V-.795h.51Q112.412-2.181,112.369-5.7Zm.806.8a9.408,9.408,0,0,1-.859,4.109h3.067V-4.9Zm4.85-.8h.967v4.351l2.68-4.351h1.042V0h-.967V-4.324L119.066,0h-1.042Zm6.161,0h.967V-.795h2.675V-5.7h.967V-.795h.623V1.617h-.795V0h-4.437Zm6.284,0h.967v4.351l2.68-4.351h1.042V0h-.967V-4.324L131.511,0h-1.042Zm6.15,0h.967V-3.33h2.68V-5.7h.967V0h-.967V-2.53h-2.68V0h-.967Zm9.792,3.615.951.124a2.466,2.466,0,0,1-.8,1.539,2.324,2.324,0,0,1-1.576.556A2.449,2.449,0,0,1,143.1-.636a3.105,3.105,0,0,1-.712-2.194,3.97,3.97,0,0,1,.306-1.617,2.135,2.135,0,0,1,.932-1.039,2.765,2.765,0,0,1,1.362-.346,2.367,2.367,0,0,1,1.52.47,2.155,2.155,0,0,1,.757,1.335l-.94.145a1.561,1.561,0,0,0-.475-.865,1.23,1.23,0,0,0-.824-.29,1.5,1.5,0,0,0-1.187.524,2.486,2.486,0,0,0-.457,1.657,2.57,2.57,0,0,0,.44,1.67,1.433,1.433,0,0,0,1.149.521,1.355,1.355,0,0,0,.951-.349A1.733,1.733,0,0,0,146.411-2.089ZM148.183-5.7h.967v2.465a.93.93,0,0,0,.647-.177,3.868,3.868,0,0,0,.545-1.031,4.1,4.1,0,0,1,.462-.892.882.882,0,0,1,.408-.29,2.62,2.62,0,0,1,.741-.075h.193v.8l-.269-.005a.715.715,0,0,0-.489.113,2.833,2.833,0,0,0-.344.7,2.944,2.944,0,0,1-.4.773,1.636,1.636,0,0,1-.564.392,2.331,2.331,0,0,1,1.225,1.16L152.362,0H151.3l-1.031-1.767a2.4,2.4,0,0,0-.553-.7.943.943,0,0,0-.564-.169V0h-.967ZM153-5.7h.967v4.351l2.68-4.351h1.042V0h-.967V-4.324L154.043,0H153ZM158.5,0l2.084-2.965L158.657-5.7h1.208l.875,1.337q.247.381.4.639.236-.354.435-.628l.961-1.348h1.155l-1.971,2.686L163.84,0h-1.187l-1.171-1.772-.312-.478L159.672,0Zm9.217-5.7h.967V-.795h2.675V-5.7h.967V-.795h.623V1.617h-.795V0h-4.437Zm10.065,3.867,1,.124a2.437,2.437,0,0,1-.875,1.359,2.632,2.632,0,0,1-1.633.483,2.609,2.609,0,0,1-1.985-.771,3.012,3.012,0,0,1-.733-2.162,3.152,3.152,0,0,1,.741-2.234,2.509,2.509,0,0,1,1.923-.795,2.439,2.439,0,0,1,1.869.779,3.094,3.094,0,0,1,.725,2.191q0,.086-.005.258h-4.254a2.192,2.192,0,0,0,.532,1.439,1.583,1.583,0,0,0,1.192.5,1.479,1.479,0,0,0,.908-.279A1.854,1.854,0,0,0,177.783-1.837ZM174.609-3.4h3.185a1.932,1.932,0,0,0-.365-1.08,1.482,1.482,0,0,0-1.2-.559,1.536,1.536,0,0,0-1.12.446A1.764,1.764,0,0,0,174.609-3.4ZM180-5.7h.967V-3.33h2.68V-5.7h.967V0h-.967V-2.53h-2.68V0H180Zm5.548,0h4.635v.8h-1.837V0h-.961V-4.9H185.55Zm5.559,7.89V-5.7h.881v.741a2.171,2.171,0,0,1,.7-.653,1.933,1.933,0,0,1,.951-.218,2.254,2.254,0,0,1,1.289.376,2.307,2.307,0,0,1,.843,1.061,3.873,3.873,0,0,1,.285,1.5,3.813,3.813,0,0,1-.314,1.576,2.369,2.369,0,0,1-.913,1.074,2.344,2.344,0,0,1-1.26.373,1.819,1.819,0,0,1-.867-.2,1.975,1.975,0,0,1-.631-.516V2.186Zm.875-5.006a2.481,2.481,0,0,0,.446,1.627,1.367,1.367,0,0,0,1.08.526,1.4,1.4,0,0,0,1.1-.545,2.587,2.587,0,0,0,.459-1.689,2.52,2.52,0,0,0-.448-1.633,1.35,1.35,0,0,0-1.072-.542,1.392,1.392,0,0,0-1.093.577A2.583,2.583,0,0,0,191.984-2.82Zm4.882-.032a2.94,2.94,0,0,1,.881-2.347,2.654,2.654,0,0,1,1.794-.634,2.559,2.559,0,0,1,1.923.771,2.932,2.932,0,0,1,.747,2.13,3.774,3.774,0,0,1-.33,1.732,2.338,2.338,0,0,1-.961.98,2.8,2.8,0,0,1-1.378.349,2.564,2.564,0,0,1-1.936-.768A3.068,3.068,0,0,1,196.867-2.852Zm.994,0a2.43,2.43,0,0,0,.478,1.641,1.532,1.532,0,0,0,1.2.545,1.523,1.523,0,0,0,1.2-.548,2.487,2.487,0,0,0,.478-1.67,2.357,2.357,0,0,0-.481-1.6,1.529,1.529,0,0,0-1.2-.545,1.536,1.536,0,0,0-1.2.542A2.419,2.419,0,0,0,197.86-2.852ZM203.35-5.7h2.229a4.042,4.042,0,0,1,1.222.137,1.475,1.475,0,0,1,.688.5,1.373,1.373,0,0,1,.287.875,1.438,1.438,0,0,1-.169.712,1.379,1.379,0,0,1-.508.508,1.333,1.333,0,0,1,.669.5,1.45,1.45,0,0,1,.266.873,1.538,1.538,0,0,1-.58,1.2A2.535,2.535,0,0,1,205.922,0H203.35Zm.967,2.4h1.031a3.69,3.69,0,0,0,.849-.064.888.888,0,0,0,.414-.26.665.665,0,0,0,.183-.47.656.656,0,0,0-.32-.628A2.42,2.42,0,0,0,205.38-4.9h-1.063Zm0,2.508h1.273a2.322,2.322,0,0,0,1.128-.191.746.746,0,0,0,.322-.658.822.822,0,0,0-.177-.508.767.767,0,0,0-.462-.3,4.779,4.779,0,0,0-.913-.062h-1.171Z" transform="translate(247 101)" fill="#143352" opacity="0.566"/>
  </g>
</svg>
