<svg xmlns="http://www.w3.org/2000/svg" xmlns:xlink="http://www.w3.org/1999/xlink" width="73.869" height="64.638" viewBox="0 0 73.869 64.638"><defs><linearGradient id="a" x1="1.155" y1="0.104" x2="0.061" y2="0.93" gradientUnits="objectBoundingBox"><stop offset="0" stop-color="#fff" stop-opacity="0"/><stop offset="1"/></linearGradient></defs><g transform="translate(-686.632 -13644.615)"><g transform="translate(686.632 13644.615)"><path d="M0,25.339S49.585,13.33,49.585,8.588,40.422,0,29.119,0,8.652,3.845,8.652,8.588,0,25.339,0,25.339Z" transform="translate(18.517 33.531)" opacity="0.252" fill="url(#a)"/><g transform="translate(0 0)" fill="#67aae0" stroke-miterlimit="10"><path d="M 20.4664421081543 52.80908203125 C 18.5358715057373 50.0164794921875 15.85342216491699 46.01980209350586 13.19360160827637 41.67559051513672 C 10.30062389373779 36.95055770874023 8.004168510437012 32.75246810913086 6.368045806884766 29.19792556762695 C 3.997579336166382 24.04802513122559 3.500001430511475 21.32721328735352 3.500001430511475 19.95159149169922 C 3.500001430511475 15.57409191131592 5.25353479385376 11.45385837554932 8.437590599060059 8.349869728088379 C 11.64575672149658 5.222391605377197 15.91761302947998 3.50000262260437 20.46625709533691 3.50000262260437 C 25.01490211486816 3.50000262260437 29.28675651550293 5.222391605377197 32.49492263793945 8.349869728088379 C 35.67897796630859 11.45385837554932 37.43251419067383 15.57409191131592 37.43251419067383 19.95159149169922 C 37.43251419067383 21.32946968078613 36.93342208862305 24.0554027557373 34.55573654174805 29.21689224243164 C 32.91555786132812 32.77741241455078 30.61395645141602 36.98233413696289 27.71486854553223 41.71484756469727 C 25.06017112731934 46.04841232299805 22.38976860046387 50.02705383300781 20.4664421081543 52.80908203125 Z" stroke="none"/><path d="M 20.46625709533691 46.62323760986328 C 27.65824127197266 35.77111434936523 33.9325065612793 24.23031616210938 33.9325065612793 19.95158576965332 C 33.9325065612793 12.81006050109863 27.89158248901367 7.000010967254639 20.46625709533691 7.000010967254639 C 13.04093170166016 7.000010967254639 7.000007152557373 12.81006050109863 7.000007152557373 19.95158576965332 C 7.000007152557373 24.23031616210938 13.27427387237549 35.77111434936523 20.46625709533691 46.62323760986328 M 20.46625709533691 58.87048721313477 C 20.46625709533691 58.87048721313477 7.095336968632182e-06 30.97053527832031 7.095336968632182e-06 19.95158576965332 C 7.095336968632182e-06 8.932636260986328 9.163057327270508 1.097717267839471e-05 20.46625709533691 1.097717267839471e-05 C 31.76945686340332 1.097717267839471e-05 40.9325065612793 8.932636260986328 40.9325065612793 19.95158576965332 C 40.9325065612793 30.97053527832031 20.46625709533691 58.87048721313477 20.46625709533691 58.87048721313477 Z" stroke="none" fill="#67aae0"/></g></g><g transform="translate(686.632 13644.042)"><path d="M442.678,268.127a3.229,3.229,0,0,0-4.622-1.293l-2.023,1.2a4.325,4.325,0,0,0-5.448-3.765,20.933,20.933,0,0,1-7.017,1.61h-.01v0h-.133v0h-.011a21.053,21.053,0,0,1-7.03-1.61,4.324,4.324,0,0,0-5.448,3.765l-2.023-1.2a3.229,3.229,0,0,0-4.622,1.293,3.846,3.846,0,0,0,1.51,4.935l4.745,2.819c.058.034.117.062.175.092.111,1.113.2,1.6.2,1.6.35,2.924,2.823,4.57,5.407,3.694a21.9,21.9,0,0,1,7.081-1.556h.01v0l.067,0,.066,0,.011,0a21.911,21.911,0,0,1,7.081,1.556c2.583.876,5.057-.77,5.406-3.694a11.886,11.886,0,0,0,.2-1.6c.058-.03.117-.058.175-.092l4.746-2.819a3.846,3.846,0,0,0,1.51-4.935" transform="translate(-389.181 -251.223)" fill="#fff"/><path d="M422.894,279.87c-11.538-1.885-10.221-14.462-10.18-14.829a4.759,4.759,0,0,0-1.986,3.242l-2.023-1.2a3.229,3.229,0,0,0-4.622,1.293,3.847,3.847,0,0,0,1.509,4.935l4.746,2.819c.058.035.117.063.175.093.111,1.113.2,1.6.2,1.6.349,2.925,2.822,4.57,5.406,3.694a21.914,21.914,0,0,1,7.081-1.555h.01v0l.067,0,.066,0,.011,0h.067q-.251-.046-.527-.091" transform="translate(-389.126 -251.47)" fill="#e5ebf5"/><path d="M434,294.509c0,1.654-2.48,3-5.539,3s-5.54-1.342-5.54-3,2.48-3,5.54-3,5.539,1.342,5.539,3" transform="translate(-394.187 -258.445)" fill="#143352"/><path d="M432.827,295c0,.893-1.664,1.618-3.716,1.618S425.4,295.9,425.4,295s1.664-1.618,3.716-1.618,3.716.725,3.716,1.618" transform="translate(-394.84 -258.938)" fill="#fff"/><path d="M434,255.309c0,1.655-2.48,3-5.539,3s-5.54-1.341-5.54-3,2.48-3,5.54-3,5.539,1.342,5.539,3" transform="translate(-394.187 -248.116)" fill="#143352"/><path d="M432.827,255.8c0,.893-1.664,1.618-3.716,1.618S425.4,256.7,425.4,255.8s1.664-1.618,3.716-1.618,3.716.725,3.716,1.618" transform="translate(-394.84 -248.609)" fill="#fff"/><path d="M423.851,278.79a23.117,23.117,0,0,1,6.81,1.6,3.6,3.6,0,0,0,1.122.183,3.478,3.478,0,0,0,3.336-3.322l.018-.093a12.672,12.672,0,0,0,.179-1.485l.032-.376.395-.206c.027-.013.055-.027.082-.043l4.747-2.819a3.151,3.151,0,0,0,1.245-4.035,2.475,2.475,0,0,0-2.248-1.405,2.76,2.76,0,0,0-1.406.4l-2.889,1.717-.165-.994a3.591,3.591,0,0,0-4.542-3.225,22.111,22.111,0,0,1-6.7,1.634v.009h-.306l-.239,0h-.145a21.427,21.427,0,0,1-7.266-1.646,3.744,3.744,0,0,0-.969-.13,3.7,3.7,0,0,0-3.573,3.355l-.165.994-2.889-1.717a2.76,2.76,0,0,0-1.406-.4,2.475,2.475,0,0,0-2.248,1.405,3.151,3.151,0,0,0,1.245,4.035l4.746,2.819c.027.016.055.029.082.043l.39.2.037.369c.107,1.064.191,1.545.191,1.55a3.5,3.5,0,0,0,3.342,3.361,3.63,3.63,0,0,0,1.165-.2,22.274,22.274,0,0,1,7.3-1.592Zm7.933,3.157h0a5.014,5.014,0,0,1-1.607-.271,21.646,21.646,0,0,0-6.742-1.519l-.128,0h-.438a21.828,21.828,0,0,0-6.522,1.5,5.05,5.05,0,0,1-1.65.287,4.818,4.818,0,0,1-4.7-4.537h0s-.07-.4-.163-1.256l-4.624-2.747a4.551,4.551,0,0,1-1.774-5.835,3.878,3.878,0,0,1,3.48-2.168,4.142,4.142,0,0,1,2.109.591l1.229.73a4.978,4.978,0,0,1,4.7-3.556,5.128,5.128,0,0,1,1.381.192l.088.031a21.307,21.307,0,0,0,6.279,1.542l.555.009.715-.016a21.343,21.343,0,0,0,6.1-1.536l.088-.031a5.128,5.128,0,0,1,1.381-.192,4.979,4.979,0,0,1,4.7,3.556l1.228-.73a4.142,4.142,0,0,1,2.109-.591,3.877,3.877,0,0,1,3.48,2.168,4.551,4.551,0,0,1-1.774,5.835l-4.619,2.743a11.8,11.8,0,0,1-.173,1.3,4.813,4.813,0,0,1-4.7,4.5" transform="translate(-388.936 -250.977)" fill="#143352"/></g></g></svg>