<svg xmlns="http://www.w3.org/2000/svg" width="13.85" height="17.7" viewBox="0 0 13.85 17.7"><path d="M.825,16.75H3.05v-8H1.025V7.5h2.35q1.125,0,2.237-.1t2.313-.1a13.119,13.119,0,0,1,2.625.25,6.181,6.181,0,0,1,2.15.85,4.151,4.151,0,0,1,1.45,1.625,5.62,5.62,0,0,1,.525,2.575,5,5,0,0,1-.55,2.4,4.727,4.727,0,0,1-1.55,1.7,7.338,7.338,0,0,1-2.363,1.012,12.417,12.417,0,0,1-2.987.337H5.85v1.725h5.5v1.3H5.85V23.75H8.6V25H1.025V23.75H3.05V21.075H.825v-1.3H3.05V18.05H.825ZM7.375,8.6a7.774,7.774,0,0,0-.937.038q-.263.037-.588.112v8H7.225a4.874,4.874,0,0,0,3.238-.962A3.967,3.967,0,0,0,11.6,12.6a4.1,4.1,0,0,0-.988-3.013A4.453,4.453,0,0,0,7.375,8.6Z" transform="translate(-0.825 -7.3)" fill="#143352"/></svg>