<?xml version="1.0" encoding="utf-8"?>
<!-- Generator: Adobe Illustrator 23.0.1, SVG Export Plug-In . SVG Version: 6.00 Build 0)  -->
<svg version="1.1" xmlns="http://www.w3.org/2000/svg" xmlns:xlink="http://www.w3.org/1999/xlink" x="0px" y="0px"
	 viewBox="0 0 240 47" style="enable-background:new 0 0 240 47;" width="245" xml:space="preserve">
<style type="text/css">
	.st0{fill-rule:evenodd;clip-rule:evenodd;fill:#FFFFFF;}
	.st1{fill-rule:evenodd;clip-rule:evenodd;fill:#F0F2FB;}
	.st2{fill-rule:evenodd;clip-rule:evenodd;fill:#27324C;}
</style>
<g id="Слой_1">
</g>
<g id="_x31_">
	<path class="st0" d="M47.1,23.5c0,13-10.5,23.5-23.6,23.5C10.5,47,0,36.5,0,23.5C0,10.5,10.5,0,23.6,0C36.6,0,47.1,10.5,47.1,23.5z
		"/>
	<path class="st0" d="M61.1,19.3c-1-2-3.3-2.6-5.3-1.5l-2.3,1.4c-0.5-3.2-3.3-5.1-6.2-4.3c0,0-4.2,1.8-8,1.8c0,0,0,0,0,0v0
		c0,0,0,0-0.1,0c0,0,0,0-0.1,0v0c0,0,0,0,0,0c-3.8,0-8-1.8-8-1.8c-2.9-0.8-5.7,1.1-6.2,4.3l-2.3-1.4c-1.9-1.1-4.3-0.5-5.3,1.5
		c-1,2-0.2,4.5,1.7,5.6l5.4,3.2c0.1,0,0.1,0.1,0.2,0.1c0.1,1.3,0.2,1.8,0.2,1.8c0.4,3.3,3.2,5.2,6.2,4.2c0,0,4.3-1.8,8.1-1.8
		c0,0,0,0,0,0v0c0,0,0.1,0,0.1,0c0,0,0.1,0,0.1,0l0,0c3.8,0,8.1,1.8,8.1,1.8c3,1,5.8-0.9,6.2-4.2c0,0,0.1-0.4,0.2-1.8
		c0.1,0,0.1-0.1,0.2-0.1l5.4-3.2C61.3,23.7,62.1,21.2,61.1,19.3z"/>
	<path class="st1" d="M38.6,32.3c-13.2-2.1-11.7-16.5-11.6-16.9c-1.2,0.8-2,2.1-2.3,3.7l-2.3-1.4c-1.9-1.1-4.3-0.5-5.3,1.5
		c-1,2-0.2,4.5,1.7,5.6l5.4,3.2c0.1,0,0.1,0.1,0.2,0.1c0.1,1.3,0.2,1.8,0.2,1.8c0.4,3.3,3.2,5.2,6.2,4.2c0,0,4.3-1.8,8.1-1.8
		c0,0,0,0,0,0v0c0,0,0,0,0.1,0c0,0,0,0,0.1,0l0,0c0,0,0.1,0,0.1,0C39,32.4,38.8,32.4,38.6,32.3z"/>
	<path class="st2" d="M45.5,41.1c0,1.9-2.8,3.4-6.3,3.4c-3.5,0-6.3-1.5-6.3-3.4c0-1.9,2.8-3.4,6.3-3.4
		C42.6,37.7,45.5,39.2,45.5,41.1z"/>
	<path class="st0" d="M43.4,41.1c0,1-1.9,1.8-4.2,1.8c-2.3,0-4.2-0.8-4.2-1.8s1.9-1.8,4.2-1.8C41.5,39.2,43.4,40.1,43.4,41.1z"/>
	<path class="st2" d="M45.5,8.2c0,1.9-2.8,3.4-6.3,3.4c-3.5,0-6.3-1.5-6.3-3.4c0-1.9,2.8-3.4,6.3-3.4C42.6,4.8,45.5,6.3,45.5,8.2z"
		/>
	<path class="st0" d="M43.4,8.2c0,1-1.9,1.8-4.2,1.8c-2.3,0-4.2-0.8-4.2-1.8c0-1,1.9-1.8,4.2-1.8C41.5,6.3,43.4,7.2,43.4,8.2z"/>
	<path class="st0" d="M31.6,24.7c0,0,4.3-1.8,4,3.1C34.3,24.7,31.6,24.7,31.6,24.7z"/>
	<path class="st2" d="M39.9,31.7c3.7,0.2,7.6,1.7,7.8,1.8c0.4,0.1,0.8,0.2,1.3,0.2c2,0,3.5-1.6,3.8-3.8l0-0.1c0,0,0.1-0.4,0.2-1.7
		l0-0.4l0.4-0.2c0,0,0.1,0,0.1,0l5.4-3.2c1.6-0.9,2.2-3,1.4-4.6c-0.5-1-1.5-1.6-2.6-1.6c-0.6,0-1.1,0.2-1.6,0.5l-3.3,2l-0.2-1.1
		c-0.4-2.3-2-3.8-4.1-3.8c-0.4,0-0.7,0.1-1.1,0.1c-0.5,0.2-4.1,1.7-7.6,1.9v0l-0.3,0c-0.1,0-0.2,0-0.3,0h-0.2c0,0,0,0,0,0
		c-3.7,0-7.8-1.7-8.3-1.9c-0.4-0.1-0.7-0.1-1.1-0.1c-2.1,0-3.7,1.5-4.1,3.8l-0.2,1.1l-3.3-2c-0.5-0.3-1.1-0.5-1.6-0.5
		c-1.1,0-2.1,0.6-2.6,1.6c-0.8,1.6-0.2,3.7,1.4,4.6l5.4,3.2c0,0,0.1,0,0.1,0l0.4,0.2l0,0.4c0.1,1.2,0.2,1.8,0.2,1.8
		c0.3,2.3,1.8,3.8,3.8,3.8c0.4,0,0.9-0.1,1.3-0.2c0.1-0.1,4.4-1.8,8.3-1.8L39.9,31.7L39.9,31.7z M48.9,35.3L48.9,35.3
		c-0.6,0-1.2-0.1-1.8-0.3c-0.1,0-4.1-1.7-7.7-1.7l-0.1,0c0,0-0.1,0-0.1,0c0,0-0.1,0-0.1,0h-0.3c-3.5,0.1-7.4,1.7-7.4,1.7
		c-0.7,0.2-1.3,0.3-1.9,0.3c-2.8,0-5-2.1-5.4-5.2l0,0c0,0-0.1-0.5-0.2-1.4l-5.3-3.1c-2.3-1.3-3.2-4.3-2-6.6c0.8-1.5,2.3-2.5,4-2.5
		c0.8,0,1.7,0.2,2.4,0.7l1.4,0.8c0.8-2.4,2.9-4.1,5.4-4.1c0.5,0,1.1,0.1,1.6,0.2l0.1,0c0,0,3.7,1.6,7.2,1.8l0.6,0l0.8,0
		c3.3-0.2,6.9-1.7,7-1.7l0.1,0c0.5-0.1,1.1-0.2,1.6-0.2c2.5,0,4.5,1.6,5.4,4.1l1.4-0.8c0.7-0.4,1.6-0.7,2.4-0.7c1.7,0,3.2,0.9,4,2.5
		c1.2,2.3,0.3,5.3-2,6.6l-5.3,3.1c-0.1,0.9-0.2,1.3-0.2,1.5C53.9,33.2,51.7,35.3,48.9,35.3z"/>
	<g>
		<path class="st0" d="M76.6,35.7h-1v-6h-2.2c0,0.9-0.1,1.6-0.2,2.3c-0.1,0.6-0.2,1.2-0.3,1.6c-0.1,0.5-0.2,0.8-0.4,1.1
			c-0.1,0.3-0.3,0.5-0.4,0.7c-0.2,0.2-0.3,0.3-0.5,0.3c-0.2,0.1-0.4,0.1-0.6,0.1c-0.4,0-0.6-0.1-0.6-0.2v-0.6h0.3
			c0.1,0,0.2,0,0.4-0.1c0.1,0,0.2-0.1,0.4-0.3c0.1-0.1,0.2-0.4,0.3-0.6c0.1-0.3,0.2-0.6,0.3-1.1c0.1-0.4,0.2-1,0.2-1.6
			c0.1-0.7,0.1-1.4,0.1-2.3h4.1V35.7z"/>
		<path class="st0" d="M81.3,32.8c0-0.2,0-0.4-0.1-0.5c-0.1-0.2-0.1-0.3-0.2-0.4c-0.1-0.1-0.2-0.2-0.4-0.3c-0.1-0.1-0.3-0.1-0.5-0.1
			c-0.4,0-0.7,0.1-0.9,0.3c-0.2,0.2-0.4,0.5-0.4,0.9H81.3L81.3,32.8z M82.1,35c-0.1,0.1-0.2,0.2-0.4,0.3c-0.1,0.1-0.3,0.2-0.5,0.2
			c-0.2,0.1-0.3,0.1-0.5,0.1c-0.2,0-0.4,0-0.5,0c-0.3,0-0.6-0.1-0.9-0.2c-0.3-0.1-0.5-0.3-0.7-0.5c-0.2-0.2-0.4-0.5-0.5-0.8
			c-0.1-0.3-0.2-0.7-0.2-1.1c0-0.3,0.1-0.6,0.2-0.9c0.1-0.3,0.3-0.5,0.4-0.8c0.2-0.2,0.4-0.4,0.7-0.5c0.3-0.1,0.6-0.2,1-0.2
			c0.3,0,0.6,0,0.8,0.1c0.2,0.1,0.5,0.2,0.6,0.4c0.2,0.2,0.3,0.4,0.4,0.7c0.1,0.3,0.2,0.6,0.2,0.9c0,0.1,0,0.2,0,0.3
			c0,0-0.1,0.1-0.2,0.1h-3.2c0,0.3,0.1,0.5,0.1,0.8c0.1,0.2,0.2,0.4,0.3,0.5c0.1,0.1,0.3,0.2,0.5,0.3C79.8,35,80,35,80.3,35
			c0.2,0,0.4,0,0.5-0.1c0.2,0,0.3-0.1,0.4-0.2c0.1-0.1,0.2-0.1,0.3-0.2c0.1,0,0.1-0.1,0.2-0.1c0.1,0,0.1,0,0.2,0.1L82.1,35z"/>
		<path class="st0" d="M87,30.9v4.8h-0.9v-2c-0.4,0.1-0.8,0.2-1.2,0.2c-0.4,0-0.7,0-0.9-0.1c-0.3-0.1-0.5-0.2-0.6-0.4
			c-0.2-0.2-0.2-0.5-0.2-0.9v-1.6h0.9v1.5c0,0.2,0,0.4,0.1,0.5c0.1,0.1,0.2,0.2,0.4,0.3c0.2,0.1,0.4,0.1,0.6,0
			c0.3,0,0.6-0.1,0.9-0.1v-2.2H87z"/>
		<path class="st0" d="M91.8,32.8c0-0.2,0-0.4-0.1-0.5c-0.1-0.2-0.1-0.3-0.2-0.4c-0.1-0.1-0.2-0.2-0.4-0.3c-0.1-0.1-0.3-0.1-0.5-0.1
			c-0.4,0-0.7,0.1-0.9,0.3c-0.2,0.2-0.4,0.5-0.4,0.9H91.8L91.8,32.8z M92.5,35c-0.1,0.1-0.2,0.2-0.4,0.3c-0.1,0.1-0.3,0.2-0.5,0.2
			c-0.2,0.1-0.3,0.1-0.5,0.1c-0.2,0-0.4,0-0.5,0c-0.3,0-0.6-0.1-0.9-0.2c-0.3-0.1-0.5-0.3-0.7-0.5c-0.2-0.2-0.4-0.5-0.5-0.8
			c-0.1-0.3-0.2-0.7-0.2-1.1c0-0.3,0.1-0.6,0.2-0.9c0.1-0.3,0.3-0.5,0.4-0.8c0.2-0.2,0.4-0.4,0.7-0.5c0.3-0.1,0.6-0.2,1-0.2
			c0.3,0,0.6,0,0.8,0.1c0.2,0.1,0.5,0.2,0.6,0.4c0.2,0.2,0.3,0.4,0.4,0.7c0.1,0.3,0.2,0.6,0.2,0.9c0,0.1,0,0.2,0,0.3
			c0,0-0.1,0.1-0.2,0.1h-3.2c0,0.3,0.1,0.5,0.1,0.8c0.1,0.2,0.2,0.4,0.3,0.5c0.1,0.1,0.3,0.2,0.5,0.3c0.2,0.1,0.4,0.1,0.6,0.1
			c0.2,0,0.4,0,0.5-0.1c0.2,0,0.3-0.1,0.4-0.2c0.1-0.1,0.2-0.1,0.3-0.2c0.1,0,0.1-0.1,0.2-0.1c0.1,0,0.1,0,0.2,0.1L92.5,35z"/>
		<polygon class="st0" points="97.9,30.9 97.9,35.7 97,35.7 97,33.5 94.8,33.5 94.8,35.7 93.8,35.7 93.8,30.9 94.8,30.9 94.8,32.8 
			97,32.8 97,30.9 		"/>
		<path class="st0" d="M103.6,30.9v4.8h-0.9v-3.1c0-0.1,0-0.1,0-0.2c0-0.1,0-0.2,0-0.2c0,0.1-0.1,0.1-0.1,0.2c0,0.1-0.1,0.1-0.1,0.2
			l-2.2,3c0,0.1-0.1,0.1-0.1,0.2c-0.1,0-0.1,0.1-0.2,0.1h-0.6v-4.8h0.9V34c0,0.1,0,0.1,0,0.2c0,0.1,0,0.2,0,0.2
			c0.1-0.1,0.1-0.3,0.2-0.3l2.2-3c0-0.1,0.1-0.1,0.1-0.2c0.1-0.1,0.1-0.1,0.2-0.1H103.6z"/>
		<path class="st0" d="M108.4,32.8c0-0.2,0-0.4-0.1-0.5c-0.1-0.2-0.1-0.3-0.2-0.4c-0.1-0.1-0.2-0.2-0.4-0.3
			c-0.1-0.1-0.3-0.1-0.5-0.1c-0.4,0-0.7,0.1-0.9,0.3c-0.2,0.2-0.4,0.5-0.4,0.9H108.4L108.4,32.8z M109.1,35
			c-0.1,0.1-0.2,0.2-0.4,0.3c-0.1,0.1-0.3,0.2-0.5,0.2c-0.2,0.1-0.3,0.1-0.5,0.1c-0.2,0-0.4,0-0.5,0c-0.3,0-0.6-0.1-0.9-0.2
			c-0.3-0.1-0.5-0.3-0.7-0.5c-0.2-0.2-0.4-0.5-0.5-0.8c-0.1-0.3-0.2-0.7-0.2-1.1c0-0.3,0.1-0.6,0.2-0.9c0.1-0.3,0.3-0.5,0.4-0.8
			c0.2-0.2,0.4-0.4,0.7-0.5c0.3-0.1,0.6-0.2,1-0.2c0.3,0,0.6,0,0.8,0.1c0.2,0.1,0.5,0.2,0.6,0.4c0.2,0.2,0.3,0.4,0.4,0.7
			c0.1,0.3,0.2,0.6,0.2,0.9c0,0.1,0,0.2,0,0.3c0,0-0.1,0.1-0.2,0.1h-3.2c0,0.3,0.1,0.5,0.1,0.8c0.1,0.2,0.2,0.4,0.3,0.5
			c0.1,0.1,0.3,0.2,0.5,0.3c0.2,0.1,0.4,0.1,0.6,0.1c0.2,0,0.4,0,0.5-0.1c0.2,0,0.3-0.1,0.4-0.2c0.1-0.1,0.2-0.1,0.3-0.2
			c0.1,0,0.1-0.1,0.2-0.1c0.1,0,0.1,0,0.2,0.1L109.1,35z"/>
		<path class="st0" d="M116.5,31.8C116.4,31.8,116.4,31.9,116.5,31.8c-0.1,0.1-0.1,0.1-0.2,0.1c-0.1,0-0.1,0-0.2-0.1
			c-0.1,0-0.1-0.1-0.2-0.1c-0.1,0-0.2-0.1-0.3-0.1c-0.1,0-0.3-0.1-0.4-0.1c-0.2,0-0.4,0-0.6,0.1c-0.2,0.1-0.3,0.2-0.4,0.4
			c-0.1,0.2-0.2,0.3-0.3,0.6c-0.1,0.2-0.1,0.5-0.1,0.7c0,0.3,0,0.5,0.1,0.8c0.1,0.2,0.2,0.4,0.3,0.6c0.1,0.1,0.3,0.3,0.4,0.3
			c0.2,0.1,0.4,0.1,0.6,0.1c0.2,0,0.4,0,0.5-0.1c0.1,0,0.2-0.1,0.3-0.2c0.1-0.1,0.2-0.1,0.2-0.2c0.1,0,0.1-0.1,0.2-0.1
			c0.1,0,0.1,0,0.2,0.1l0.3,0.3c-0.1,0.1-0.2,0.3-0.4,0.3c-0.1,0.1-0.3,0.2-0.4,0.2c-0.2,0.1-0.3,0.1-0.5,0.1c-0.2,0-0.3,0-0.5,0
			c-0.3,0-0.6-0.1-0.8-0.2c-0.3-0.1-0.5-0.3-0.7-0.5c-0.2-0.2-0.3-0.5-0.5-0.8c-0.1-0.3-0.2-0.7-0.2-1.1c0-0.4,0-0.7,0.1-1
			c0.1-0.3,0.2-0.6,0.4-0.8c0.2-0.2,0.4-0.4,0.7-0.5c0.3-0.1,0.6-0.2,1-0.2c0.3,0,0.7,0.1,0.9,0.2c0.3,0.1,0.5,0.3,0.7,0.5
			L116.5,31.8z"/>
		<polygon class="st0" points="121.9,35.7 121,35.7 121,31.6 118.8,31.6 118.8,35.7 117.9,35.7 117.9,30.9 121.9,30.9 		"/>
		<path class="st0" d="M127.7,30.9v4.8h-0.9v-3.1c0-0.1,0-0.1,0-0.2c0-0.1,0-0.2,0-0.2c0,0.1-0.1,0.1-0.1,0.2c0,0.1-0.1,0.1-0.1,0.2
			l-2.2,3c0,0.1-0.1,0.1-0.1,0.2c-0.1,0-0.1,0.1-0.2,0.1h-0.6v-4.8h0.9V34c0,0.1,0,0.1,0,0.2c0,0.1,0,0.2,0,0.2
			c0.1-0.1,0.1-0.3,0.2-0.3l2.2-3c0-0.1,0.1-0.1,0.1-0.2c0.1-0.1,0.1-0.1,0.2-0.1H127.7z"/>
		<polygon class="st0" points="133.3,30.9 133.3,35.7 132.3,35.7 132.3,33.5 130.1,33.5 130.1,35.7 129.2,35.7 129.2,30.9 
			130.1,30.9 130.1,32.8 132.3,32.8 132.3,30.9 		"/>
		<path class="st0" d="M140.4,30.9v4.8h-0.9v-4.8H140.4L140.4,30.9z M136.7,35c0.3,0,0.6-0.1,0.7-0.2c0.2-0.2,0.2-0.3,0.2-0.6
			c0-0.1,0-0.2-0.1-0.3c0-0.1-0.1-0.2-0.2-0.3c-0.1-0.1-0.2-0.1-0.3-0.2c-0.1,0-0.3-0.1-0.4-0.1h-1V35H136.7L136.7,35z M136.7,32.7
			c0.3,0,0.6,0,0.8,0.1c0.2,0.1,0.4,0.2,0.6,0.3c0.1,0.1,0.2,0.3,0.3,0.5c0.1,0.2,0.1,0.4,0.1,0.5c0,0.2,0,0.4-0.1,0.6
			c-0.1,0.2-0.2,0.3-0.3,0.5c-0.2,0.1-0.3,0.2-0.6,0.3c-0.2,0.1-0.5,0.1-0.8,0.1h-1.9v-4.8h0.9v1.9H136.7z"/>
		<path class="st0" d="M148.8,30.9v4.8h-0.9v-3.1c0-0.1,0-0.1,0-0.2c0-0.1,0-0.2,0-0.2c0,0.1-0.1,0.1-0.1,0.2c0,0.1-0.1,0.1-0.1,0.2
			l-2.2,3c0,0.1-0.1,0.1-0.1,0.2c-0.1,0-0.1,0.1-0.2,0.1h-0.6v-4.8h0.9V34c0,0.1,0,0.1,0,0.2c0,0.1,0,0.2,0,0.2
			c0.1-0.1,0.1-0.3,0.2-0.3l2.2-3c0-0.1,0.1-0.1,0.1-0.2c0.1-0.1,0.1-0.1,0.2-0.1H148.8z"/>
		<path class="st0" d="M156.3,31.8C156.3,31.8,156.3,31.9,156.3,31.8c-0.1,0.1-0.1,0.1-0.2,0.1c-0.1,0-0.1,0-0.2-0.1
			c-0.1,0-0.1-0.1-0.2-0.1c-0.1,0-0.2-0.1-0.3-0.1c-0.1,0-0.3-0.1-0.4-0.1c-0.2,0-0.4,0-0.6,0.1c-0.2,0.1-0.3,0.2-0.4,0.4
			c-0.1,0.2-0.2,0.3-0.3,0.6c-0.1,0.2-0.1,0.5-0.1,0.7c0,0.3,0,0.5,0.1,0.8c0.1,0.2,0.2,0.4,0.3,0.6c0.1,0.1,0.3,0.3,0.4,0.3
			c0.2,0.1,0.4,0.1,0.6,0.1c0.2,0,0.4,0,0.5-0.1c0.1,0,0.2-0.1,0.3-0.2c0.1-0.1,0.2-0.1,0.2-0.2c0.1,0,0.1-0.1,0.2-0.1
			c0.1,0,0.1,0,0.2,0.1l0.3,0.3c-0.1,0.1-0.2,0.3-0.4,0.3c-0.1,0.1-0.3,0.2-0.4,0.2c-0.2,0.1-0.3,0.1-0.5,0.1c-0.2,0-0.3,0-0.5,0
			c-0.3,0-0.6-0.1-0.8-0.2c-0.3-0.1-0.5-0.3-0.7-0.5c-0.2-0.2-0.3-0.5-0.5-0.8c-0.1-0.3-0.2-0.7-0.2-1.1c0-0.4,0-0.7,0.1-1
			c0.1-0.3,0.2-0.6,0.4-0.8c0.2-0.2,0.4-0.4,0.7-0.5c0.3-0.1,0.6-0.2,1-0.2c0.3,0,0.7,0.1,0.9,0.2c0.3,0.1,0.5,0.3,0.7,0.5
			L156.3,31.8z"/>
		<path class="st0" d="M162,30.9l-2.7,6.2c0,0.1-0.1,0.1-0.1,0.2c0,0-0.1,0.1-0.2,0.1h-0.7l0.9-1.9l-2-4.5h0.8c0.1,0,0.1,0,0.2,0.1
			c0,0,0.1,0.1,0.1,0.1l1.2,2.9c0,0.1,0.1,0.1,0.1,0.2c0,0.1,0,0.1,0.1,0.2c0-0.1,0-0.2,0.1-0.2c0-0.1,0.1-0.1,0.1-0.2l1.2-2.9
			c0-0.1,0.1-0.1,0.1-0.1c0,0,0.1-0.1,0.2-0.1H162z"/>
		<path class="st0" d="M166.2,31.8C166.1,31.8,166.1,31.9,166.2,31.8c-0.1,0.1-0.1,0.1-0.2,0.1c-0.1,0-0.1,0-0.2-0.1
			c-0.1,0-0.1-0.1-0.2-0.1c-0.1,0-0.2-0.1-0.3-0.1c-0.1,0-0.3-0.1-0.4-0.1c-0.2,0-0.4,0-0.6,0.1c-0.2,0.1-0.3,0.2-0.4,0.4
			c-0.1,0.2-0.2,0.3-0.3,0.6c-0.1,0.2-0.1,0.5-0.1,0.7c0,0.3,0,0.5,0.1,0.8c0.1,0.2,0.2,0.4,0.3,0.6c0.1,0.1,0.3,0.3,0.4,0.3
			c0.2,0.1,0.4,0.1,0.6,0.1c0.2,0,0.4,0,0.5-0.1c0.1,0,0.2-0.1,0.3-0.2c0.1-0.1,0.2-0.1,0.2-0.2c0.1,0,0.1-0.1,0.2-0.1
			c0.1,0,0.1,0,0.2,0.1l0.3,0.3c-0.1,0.1-0.2,0.3-0.4,0.3c-0.1,0.1-0.3,0.2-0.4,0.2c-0.2,0.1-0.3,0.1-0.5,0.1c-0.2,0-0.3,0-0.5,0
			c-0.3,0-0.6-0.1-0.8-0.2c-0.3-0.1-0.5-0.3-0.7-0.5c-0.2-0.2-0.3-0.5-0.5-0.8c-0.1-0.3-0.2-0.7-0.2-1.1c0-0.4,0-0.7,0.2-1
			c0.1-0.3,0.2-0.6,0.4-0.8c0.2-0.2,0.4-0.4,0.7-0.5c0.3-0.1,0.6-0.2,1-0.2c0.3,0,0.6,0.1,0.9,0.2c0.3,0.1,0.5,0.3,0.7,0.5
			L166.2,31.8z"/>
		<polygon class="st0" points="171.6,31.6 169.8,31.6 169.8,35.7 168.9,35.7 168.9,31.6 167,31.6 167,30.9 171.6,30.9 		"/>
		<path class="st0" d="M175.2,33.6c-0.4,0-0.7,0-1,0.1c-0.3,0-0.5,0.1-0.6,0.2c-0.2,0.1-0.3,0.2-0.4,0.3c-0.1,0.1-0.1,0.2-0.1,0.3
			c0,0.1,0,0.2,0.1,0.3c0,0.1,0.1,0.2,0.2,0.2c0.1,0.1,0.1,0.1,0.2,0.1c0.1,0,0.2,0,0.3,0c0.1,0,0.3,0,0.4,0c0.1,0,0.2-0.1,0.3-0.1
			c0.1-0.1,0.2-0.1,0.3-0.2c0.1-0.1,0.2-0.2,0.3-0.3V33.6L175.2,33.6z M172.5,31.6c0.3-0.3,0.6-0.4,0.9-0.6c0.3-0.1,0.7-0.2,1-0.2
			c0.3,0,0.5,0,0.7,0.1c0.2,0.1,0.4,0.2,0.5,0.4c0.1,0.2,0.3,0.4,0.3,0.6c0.1,0.2,0.1,0.5,0.1,0.7v3.1h-0.4c-0.1,0-0.2,0-0.2,0
			c0,0-0.1-0.1-0.1-0.2l-0.1-0.4c-0.1,0.1-0.2,0.2-0.4,0.3c-0.1,0.1-0.2,0.2-0.4,0.2c-0.1,0.1-0.3,0.1-0.4,0.1c-0.1,0-0.3,0-0.5,0
			c-0.2,0-0.4,0-0.5-0.1c-0.2-0.1-0.3-0.1-0.4-0.2c-0.1-0.1-0.2-0.2-0.3-0.4c-0.1-0.2-0.1-0.3-0.1-0.6c0-0.2,0.1-0.4,0.2-0.5
			c0.1-0.2,0.3-0.3,0.5-0.5c0.2-0.1,0.5-0.3,0.9-0.3c0.4-0.1,0.8-0.1,1.4-0.2v-0.4c0-0.4-0.1-0.6-0.2-0.8c-0.2-0.2-0.4-0.3-0.7-0.3
			c-0.2,0-0.4,0-0.5,0.1c-0.1,0.1-0.3,0.1-0.4,0.2c-0.1,0.1-0.2,0.1-0.3,0.2c-0.1,0.1-0.2,0.1-0.2,0.1c-0.1,0-0.1,0-0.2-0.1
			c0,0-0.1-0.1-0.1-0.1L172.5,31.6z"/>
		<path class="st0" d="M179.5,35.1c0.3,0,0.5-0.1,0.7-0.2c0.2-0.1,0.3-0.3,0.3-0.6c0-0.1,0-0.2,0-0.3c0-0.1-0.1-0.2-0.2-0.2
			c-0.1-0.1-0.2-0.1-0.3-0.2c-0.1,0-0.3-0.1-0.5-0.1h-1v1.5H179.5L179.5,35.1z M178.5,31.5v1.4h0.9c0.1,0,0.3,0,0.4-0.1
			c0.1,0,0.2-0.1,0.3-0.2c0.1-0.1,0.1-0.1,0.2-0.2c0-0.1,0.1-0.2,0.1-0.3c0-0.1,0-0.2,0-0.2c0-0.1-0.1-0.2-0.2-0.2
			c-0.1-0.1-0.2-0.1-0.3-0.2c-0.1,0-0.3-0.1-0.4-0.1H178.5L178.5,31.5z M179.4,30.9c0.3,0,0.6,0,0.8,0.1c0.2,0.1,0.4,0.1,0.5,0.2
			c0.1,0.1,0.2,0.2,0.3,0.4c0.1,0.1,0.1,0.3,0.1,0.5c0,0.1,0,0.2,0,0.3c0,0.1-0.1,0.2-0.1,0.3c-0.1,0.1-0.2,0.2-0.3,0.3
			c-0.1,0.1-0.3,0.2-0.5,0.2c0.4,0.1,0.6,0.2,0.8,0.4c0.2,0.2,0.3,0.4,0.3,0.8c0,0.2,0,0.4-0.1,0.6c-0.1,0.2-0.2,0.3-0.4,0.4
			c-0.2,0.1-0.4,0.2-0.6,0.3c-0.2,0.1-0.5,0.1-0.7,0.1h-1.9v-4.8H179.4z"/>
		<path class="st0" d="M184.6,35.1c0.5,0,0.8-0.2,1-0.5c0.2-0.3,0.3-0.7,0.3-1.3c0-0.6-0.1-1-0.3-1.3c-0.2-0.3-0.6-0.5-1-0.5
			c-0.5,0-0.8,0.2-1,0.5c-0.2,0.3-0.3,0.7-0.3,1.3c0,0.6,0.1,1,0.3,1.3C183.8,34.9,184.1,35.1,184.6,35.1L184.6,35.1z M184.6,30.8
			c0.4,0,0.7,0.1,1,0.2c0.3,0.1,0.5,0.3,0.7,0.5c0.2,0.2,0.4,0.5,0.5,0.8c0.1,0.3,0.2,0.6,0.2,1c0,0.4-0.1,0.7-0.2,1
			c-0.1,0.3-0.3,0.6-0.5,0.8c-0.2,0.2-0.4,0.4-0.7,0.5c-0.3,0.1-0.6,0.2-1,0.2c-0.4,0-0.7-0.1-1-0.2c-0.3-0.1-0.5-0.3-0.7-0.5
			c-0.2-0.2-0.4-0.5-0.5-0.8c-0.1-0.3-0.2-0.7-0.2-1c0-0.4,0.1-0.7,0.2-1c0.1-0.3,0.3-0.6,0.5-0.8c0.2-0.2,0.4-0.4,0.7-0.5
			C183.9,30.9,184.2,30.8,184.6,30.8z"/>
		<path class="st0" d="M190.1,35.1c0.3,0,0.5-0.1,0.7-0.2c0.2-0.1,0.3-0.3,0.3-0.6c0-0.1,0-0.2,0-0.3c0-0.1-0.1-0.2-0.2-0.2
			c-0.1-0.1-0.2-0.1-0.3-0.2c-0.1,0-0.3-0.1-0.5-0.1h-1v1.5H190.1L190.1,35.1z M189.1,31.5v1.4h0.9c0.1,0,0.3,0,0.4-0.1
			c0.1,0,0.2-0.1,0.3-0.2c0.1-0.1,0.1-0.1,0.2-0.2c0-0.1,0.1-0.2,0.1-0.3c0-0.1,0-0.2,0-0.2c0-0.1-0.1-0.2-0.2-0.2
			c-0.1-0.1-0.2-0.1-0.3-0.2c-0.1,0-0.3-0.1-0.4-0.1H189.1L189.1,31.5z M190,30.9c0.3,0,0.6,0,0.8,0.1c0.2,0.1,0.4,0.1,0.5,0.2
			c0.1,0.1,0.2,0.2,0.3,0.4c0.1,0.1,0.1,0.3,0.1,0.5c0,0.1,0,0.2,0,0.3c0,0.1-0.1,0.2-0.1,0.3c-0.1,0.1-0.2,0.2-0.3,0.3
			c-0.1,0.1-0.3,0.2-0.5,0.2c0.4,0.1,0.6,0.2,0.8,0.4c0.2,0.2,0.3,0.4,0.3,0.8c0,0.2,0,0.4-0.1,0.6c-0.1,0.2-0.2,0.3-0.4,0.4
			c-0.2,0.1-0.4,0.2-0.6,0.3c-0.2,0.1-0.5,0.1-0.7,0.1h-1.9v-4.8H190z"/>
		<path class="st0" d="M77.2,19.6c0.4,0,0.5-0.1,0.6-0.3c0.1-0.3,0.2-1.2,0.2-2.4v-3.3c0-0.7-0.1-2.5-0.2-2.8
			c-0.1-0.3-0.2-0.3-0.9-0.3h-0.4c-0.6,0-1.1,0.2-1.4,1c-0.1,0.3-0.1,0.7-0.2,1.6c-0.2,1.5-0.4,2.9-0.7,4.3
			c-0.3,1.3-0.4,1.6-0.4,1.8v0.1c0,0.1,0,0.3,0.3,0.3H77.2L77.2,19.6z M74.5,20.6c-0.9,0-1.7,0-2.1,0.3c-0.5,0.3-0.6,0.9-0.7,1.3
			c-0.1,0.3-0.2,0.8-0.6,0.8c-0.6,0-0.6-0.8-0.6-1.6c0-0.9,0-2.3,0.9-2.3c0.1,0,0.2,0.1,0.3,0.1c0.1,0,0.1,0.1,0.2,0.1
			c0.6,0,1.1-1.6,1.3-2.4c0.3-1,0.7-3.2,0.7-4.5c0-0.6,0-1.3-0.4-1.6c-0.2-0.2-0.4-0.1-0.8-0.4c-0.2-0.2-0.3-0.4-0.3-0.5
			c0-0.7,0.7-0.7,0.9-0.7c0.9,0,1.9,0.1,2.8,0.1c2.9,0,2-0.1,3.1-0.1c1.6,0,2.1,0,2.1,0.5c0,0.4-0.3,0.4-0.5,0.5
			c-0.3,0.1-0.4,0.2-0.4,0.2c-0.3,0.5-0.2,4.2-0.2,4.9c0,3.1,0.1,3.9,0.6,3.9c0.1,0,0.2,0,0.3-0.1c0.1-0.1,0.2-0.1,0.4-0.1
			c0.8,0,0.8,1.5,0.8,2.4c0,0.7,0,1.5-0.6,1.5c-0.4,0-0.6-0.6-0.6-0.8c-0.1-0.4-0.3-1-0.7-1.3c-0.5-0.3-1.3-0.3-2.2-0.3H74.5
			L74.5,20.6z"/>
		<path class="st0" d="M87.1,19.8c0.6,0,1.7-0.5,1.7-2.4c0-2.4-1.2-3.6-2.3-3.6c-0.6,0-1.7,0.5-1.7,2.3C84.8,18.5,86,19.8,87.1,19.8
			L87.1,19.8z M82.8,16.8c0-2.2,1.6-4.1,4.1-4.1c2.3,0,3.8,1.6,3.8,3.9c0,2.3-1.6,4.3-4,4.3C84.4,20.9,82.8,19,82.8,16.8L82.8,16.8z
			"/>
		<path class="st0" d="M92.9,15.4c0-0.4,0-1.1-0.2-1.3c-0.1-0.1-0.2-0.2-0.3-0.2c-0.1,0-0.4-0.2-0.4-0.5c0-0.6,1.2-0.6,1.8-0.6
			c0.6,0,1.8-0.1,1.8,0.6c0,0.3-0.3,0.4-0.4,0.4c-0.1,0-0.3,0.1-0.3,0.2c-0.1,0.1-0.2,0.5-0.2,0.9v0.4c0,0.1,0,0.5,0.1,0.6
			c0.1,0.1,0.2,0.1,0.4,0.1h0.4c0.5,0,0.7-0.3,0.9-0.7c0.3-0.6,0.3-1,0.6-1.7c0.2-0.3,0.6-1,1.5-1c0.6,0,1.3,0.3,1.3,1.1
			c0,0.5-0.4,0.9-1,0.9c-0.2,0-0.4-0.1-0.6-0.2c-0.1-0.1-0.2-0.1-0.4-0.2c-0.3,0.4-0.2,0.5-0.5,1.2c-0.1,0.2-0.3,0.6-0.6,0.8v0
			c0.3,0.1,0.8,0.3,1.2,0.7c0.3,0.4,0.5,0.8,0.7,1.3c0.2,0.6,0.4,0.8,0.7,0.9c0.2,0.1,0.3,0.1,0.4,0.1c0.3,0.1,0.6,0.2,0.6,0.5
			c0,0.3-0.4,0.8-1.3,0.8c-0.4,0-0.9-0.1-1.2-0.4c-0.4-0.3-0.6-0.9-0.8-1.4c-0.2-0.8-0.4-1.4-0.8-1.8C96,17.1,95.7,17,95.4,17
			c-0.4,0-0.5,0-0.6,0.1c-0.2,0.1-0.1,0.4-0.1,1.1v0.4c0,0.5,0.1,0.8,0.2,0.9c0,0,0.1,0.1,0.3,0.2c0.2,0.1,0.4,0.2,0.4,0.4
			c0,0.6-0.9,0.6-1.8,0.6c-0.6,0-1.8,0.1-1.8-0.6c0-0.3,0.3-0.4,0.4-0.4c0.1,0,0.3-0.1,0.3-0.2c0.2-0.2,0.2-0.9,0.2-1.3V15.4z"/>
		<path class="st0" d="M105.9,12.8c1.3,0,1.1-0.2,1.8-0.2c0.8,0,0.9,1.1,0.9,1.7c0,0.4,0,1-0.4,1c-0.2,0-0.3-0.1-0.3-0.3
			c-0.1-0.1-0.1-0.2-0.2-0.3c-0.1-0.1-0.1-0.3-0.2-0.4c-0.2-0.4-0.6-0.6-1.1-0.6c-0.2,0-0.4,0-0.5,0.1c0,0.1-0.1,0.3-0.1,1.5v2.8
			c0,1,0.1,1.2,0.2,1.3c0.1,0.1,0.2,0.2,0.3,0.2c0.2,0.1,0.4,0.2,0.4,0.4c0,0.6-0.9,0.6-1.8,0.6c-0.9,0-1.8,0-1.8-0.6
			c0-0.3,0.3-0.4,0.4-0.4c0.1,0,0.3-0.1,0.3-0.2c0.1-0.1,0.2-0.3,0.2-1.3v-2.8c0-1.3-0.1-1.5-0.1-1.5c-0.1-0.1-0.3-0.1-0.5-0.1
			c-0.6,0-0.9,0.2-1.1,0.6c-0.1,0.1-0.1,0.3-0.2,0.4c0,0.1-0.1,0.2-0.2,0.3c-0.1,0.1-0.1,0.3-0.3,0.3c-0.4,0-0.4-0.6-0.4-1
			c0-0.8,0.1-1.7,0.9-1.7c0.3,0,0.6,0.2,1.7,0.2H105.9z"/>
		<path class="st0" d="M113.4,19.8c0.6,0,1.7-0.5,1.7-2.4c0-2.4-1.2-3.6-2.3-3.6c-0.6,0-1.7,0.5-1.7,2.3
			C111.2,18.5,112.4,19.8,113.4,19.8L113.4,19.8z M109.2,16.8c0-2.2,1.6-4.1,4.1-4.1c2.3,0,3.8,1.6,3.8,3.9c0,2.3-1.6,4.3-4,4.3
			C110.8,20.9,109.2,19,109.2,16.8L109.2,16.8z"/>
		<path class="st0" d="M120.9,18.1c0,0.6,0,0.7,0.2,0.9c0.4,0.5,1.1,0.8,1.7,0.8c1,0,1.9-0.8,1.9-2.7c0-2-0.9-3-2.1-3
			c-0.9,0-1.6,0.6-1.6,1.8V18.1L120.9,18.1z M120.9,13.6c0,0.1,0,0.2,0.1,0.2c0.1,0,0.1-0.1,0.2-0.1c0.1-0.1,0.3-0.3,0.4-0.3
			c0.5-0.4,1-0.7,1.8-0.7c1.6,0,3.3,1.2,3.3,3.8c0,2.8-1.9,4.3-3.6,4.3c-0.4,0-1-0.1-1.4-0.3c-0.4-0.2-0.5-0.3-0.6-0.3
			c-0.1,0-0.2,0.5-0.2,0.6v0.3c0,0.2,0,0.9,0.2,1.2c0.1,0.1,0.3,0.2,0.4,0.2c0.2,0,0.5,0.2,0.5,0.5c0,0.5-1,0.5-2,0.5
			c-0.7,0-1.9,0.1-1.9-0.6c0-0.3,0.3-0.4,0.4-0.4c0.1,0,0.2-0.1,0.3-0.2c0.2-0.2,0.3-0.6,0.3-3.3v-1.3c0-2.3,0-3.2-0.3-3.5
			c-0.2-0.1-0.3-0.1-0.6-0.2c-0.1-0.1-0.2-0.1-0.2-0.3c0-0.3,0.3-0.4,0.6-0.6c0.4-0.2,1.4-0.5,1.9-0.5c0.4,0,0.4,0.3,0.4,0.5V13.6z"
			/>
		<path class="st0" d="M173.5,19.8c0.6,0,1.7-0.5,1.7-2.4c0-2.4-1.2-3.6-2.2-3.6c-0.6,0-1.7,0.5-1.7,2.3
			C171.2,18.5,172.4,19.8,173.5,19.8L173.5,19.8z M169.2,16.8c0-2.2,1.6-4.1,4.1-4.1c2.3,0,3.8,1.6,3.8,3.9c0,2.3-1.6,4.3-4,4.3
			C170.8,20.9,169.2,19,169.2,16.8L169.2,16.8z"/>
		<path class="st0" d="M137.5,19.2c0.9,0,2.5-0.7,2.5-3.4c0-3.5-1.8-5.3-3.3-5.3c-0.9,0-2.5,0.7-2.5,3.4
			C134.2,17.4,136,19.2,137.5,19.2L137.5,19.2z M131.5,14.9c0-3.2,2.2-6,5.7-6c3.3,0,5.3,2.4,5.3,5.7c0,3.3-2.1,6.1-5.6,6.1
			C133.6,20.8,131.5,18.1,131.5,14.9L131.5,14.9z"/>
		<path class="st0" d="M147.8,13c-0.8,0-1.6,0.3-2.2,0.7c-0.8,0.7-1.4,1.8-1.4,3.1c0,2.1,1.4,3.6,3.5,3.6c1.2,0,2-0.5,2.5-1
			c0.4-0.4,0.4-0.7,0.4-0.8c0-0.2-0.1-0.3-0.3-0.3c-0.1,0-0.2,0-0.3,0.2c-0.3,0.2-0.3,0.3-0.6,0.6c-0.3,0.2-0.8,0.5-1.4,0.5
			c-1.2,0-2.6-1.1-2.6-3.2c0-2.1,1.2-2.9,2.3-2.9c0.8,0,1.1,0.5,1.4,1c0.2,0.3,0.3,0.7,0.8,0.7c0.4,0,0.6-0.3,0.6-0.7
			c0-0.5-0.4-0.9-1-1.3C149.1,13.2,148.4,13,147.8,13z"/>
		<path class="st0" d="M146.6,12.9c0.4-0.1,0.8-0.2,1.3-0.2c0.3,0,0.7,0,1,0.1c0.3,0.1,0.7,0.2,1,0.4l0,0c0.3,0.2,0.6,0.4,0.8,0.7
			c0.2,0.3,0.3,0.6,0.3,0.9c0,0.3-0.1,0.5-0.3,0.7c-0.2,0.2-0.4,0.3-0.7,0.3c-0.6,0-0.8-0.4-1.1-0.9l0-0.1c-0.1-0.2-0.2-0.5-0.4-0.6
			c-0.2-0.1-0.4-0.2-0.7-0.2c-0.5,0-1.1,0.2-1.5,0.7c-0.3,0.4-0.5,1-0.5,1.8c0,1.9,1.2,2.8,2.2,2.8c0.3,0,0.5-0.1,0.7-0.2
			c0.2-0.1,0.4-0.2,0.5-0.3c0.2-0.1,0.2-0.2,0.3-0.3c0.1-0.1,0.2-0.2,0.3-0.3l0,0c0.1-0.1,0.2-0.1,0.3-0.2c0.1,0,0.2-0.1,0.3-0.1
			c0.2,0,0.3,0.1,0.4,0.2c0.1,0.1,0.2,0.3,0.2,0.4c0,0.1,0,0.3-0.2,0.5c-0.1,0.1-0.2,0.3-0.4,0.5l0,0c-0.3,0.3-0.7,0.6-1.1,0.8
			c-0.5,0.2-1,0.3-1.6,0.3c-1.1,0-2.1-0.4-2.8-1.1c-0.7-0.7-1.1-1.7-1.1-2.9c0-0.7,0.2-1.3,0.4-1.9c0.3-0.6,0.7-1.1,1.2-1.5l0,0
			C145.7,13.2,146.1,13,146.6,12.9L146.6,12.9z"/>
		<path class="st0" d="M157.4,12.9c1.3,0,1.1-0.2,1.8-0.2c0.8,0,0.9,1.1,0.9,1.7c0,0.4,0,1-0.4,1c-0.2,0-0.3-0.1-0.3-0.3
			c-0.1-0.1-0.1-0.2-0.2-0.3c-0.1-0.1-0.1-0.3-0.2-0.4c-0.2-0.4-0.6-0.6-1.1-0.6c-0.2,0-0.4,0-0.5,0.1c0,0.1-0.1,0.3-0.1,1.5v2.8
			c0,1,0.1,1.2,0.2,1.3c0.1,0.1,0.2,0.2,0.3,0.2c0.2,0.1,0.4,0.2,0.4,0.4c0,0.6-0.9,0.6-1.8,0.6c-0.9,0-1.8,0-1.8-0.6
			c0-0.3,0.3-0.4,0.4-0.4c0.1,0,0.3-0.1,0.3-0.2c0.1-0.1,0.2-0.3,0.2-1.3v-2.8c0-1.3-0.1-1.5-0.1-1.5c-0.1-0.1-0.3-0.1-0.5-0.1
			c-0.6,0-0.9,0.2-1.1,0.6c-0.1,0.1-0.1,0.3-0.2,0.4c0,0.1-0.1,0.2-0.2,0.3c-0.1,0.1-0.1,0.3-0.3,0.3c-0.4,0-0.4-0.6-0.4-1
			c0-0.8,0.1-1.7,0.9-1.7c0.3,0,0.6,0.2,1.7,0.2H157.4z"/>
		<path class="st0" d="M166.2,15.9h-3.6c-0.1,0-0.2,0-0.2-0.2c0-0.4,0.3-1,0.6-1.3c0.4-0.4,1-0.7,1.5-0.7c1.1,0,2,0.8,2,1.8
			C166.5,15.8,166.5,15.9,166.2,15.9L166.2,15.9z M167.1,16.5c0.5,0,0.6-0.1,0.6-0.6c0-1.5-0.9-2.9-2.9-2.9c-2.2,0-3.7,1.7-3.7,3.8
			c0,2,1.4,3.7,3.5,3.7c1.1,0,2.1-0.5,2.6-1.1c0.2-0.2,0.4-0.6,0.4-0.8c0-0.1-0.1-0.3-0.2-0.3c-0.2,0-0.3,0.1-0.4,0.2
			c-0.2,0.2-0.3,0.4-0.6,0.6c-0.5,0.4-1,0.5-1.5,0.5c-1.5,0-2.5-1.4-2.5-2.9c0-0.2,0-0.3,0.3-0.3H167.1L167.1,16.5z"/>
		<path class="st0" d="M166.2,15.6C166.2,15.6,166.2,15.6,166.2,15.6L166.2,15.6L166.2,15.6z M162.7,15.5c0-0.1,0.1-0.2,0.1-0.4
			c0.1-0.2,0.3-0.4,0.4-0.6l0,0c0.2-0.2,0.4-0.3,0.6-0.4c0.2-0.1,0.5-0.2,0.7-0.2c0.5,0,0.9,0.2,1.2,0.5c0.3,0.3,0.5,0.6,0.5,1l0,0
			H162.7L162.7,15.5L162.7,15.5z M162.7,16.7L162.7,16.7C162.7,16.7,162.7,16.7,162.7,16.7L162.7,16.7L162.7,16.7z M167.8,16.6
			L167.8,16.6c0.2-0.2,0.2-0.4,0.2-0.7c0-0.9-0.3-1.7-0.9-2.4c-0.5-0.5-1.3-0.8-2.3-0.8c-1.2,0-2.1,0.5-2.8,1.2
			c-0.7,0.8-1.1,1.8-1.1,3c0,1.1,0.4,2.1,1.1,2.9c0.7,0.7,1.6,1.1,2.7,1.1c0.6,0,1.1-0.1,1.6-0.3c0.5-0.2,1-0.5,1.3-0.9
			c0.1-0.1,0.3-0.3,0.4-0.5c0.1-0.2,0.2-0.4,0.2-0.5c0-0.1-0.1-0.3-0.2-0.4c-0.1-0.1-0.2-0.2-0.4-0.2c-0.1,0-0.3,0-0.4,0.1
			c-0.1,0.1-0.2,0.1-0.2,0.2c-0.1,0.1-0.2,0.2-0.2,0.3c-0.1,0.1-0.2,0.2-0.3,0.3c-0.2,0.2-0.4,0.3-0.6,0.3c-0.2,0.1-0.5,0.1-0.7,0.1
			c-0.6,0-1.2-0.3-1.5-0.7c-0.4-0.5-0.6-1.1-0.6-1.8h4.4C167.4,16.8,167.6,16.8,167.8,16.6z"/>
		<path class="st0" d="M181.8,15.3l0.1,0.2l0.6-0.9c0.1-0.2,0.2-0.4,0.3-0.5l-0.1,0c-0.3-0.1-0.5-0.2-0.5-0.6c0-0.7,0.8-0.7,1.4-0.7
			h0.2c0.6,0,1.4,0,1.4,0.7c0,0.4-0.2,0.5-0.4,0.6l-0.3,0.1l-0.1,0c0,0-0.1,0.1-0.3,0.4c-0.2,0.3-0.5,0.7-1,1.5l-0.4,0.7l0.9,1.4
			c0.1,0.2,0.3,0.5,0.5,0.8c0.1,0.2,0.3,0.3,0.3,0.4l0,0c0.1,0.1,0.1,0.1,0.2,0.2c0.1,0,0.1,0.1,0.2,0.1l0,0
			c0.2,0.1,0.5,0.2,0.5,0.6c0,0.8-1.2,0.8-1.8,0.8l-0.1,0c-0.6,0-1.8,0-1.8-0.8c0-0.4,0.3-0.5,0.5-0.6l0.1,0c0,0,0.1,0.1,0.1,0
			c0-0.1-0.3-0.5-0.7-1.2l-0.2-0.3l-0.6,0.9c-0.1,0.1-0.2,0.4-0.3,0.6l-0.1,0.1l0,0c0.3,0.1,0.4,0.2,0.4,0.6c0,0.7-0.8,0.7-1.4,0.7
			h-0.2c-0.6,0-1.4,0-1.4-0.7c0-0.2,0.1-0.4,0.2-0.5c0.1-0.1,0.2-0.1,0.3-0.1l0.1,0c0.1,0,0.1,0,0.2-0.1c0.1-0.1,0.2-0.2,0.5-0.6
			c0.3-0.4,0.7-1,1.3-2l-0.9-1.5c0-0.1-0.3-0.4-0.5-0.7c-0.1-0.2-0.2-0.3-0.2-0.3l0,0l-0.1,0c-0.1,0-0.1-0.1-0.1-0.1l-0.1,0
			c-0.1,0-0.2-0.1-0.3-0.2c-0.1-0.1-0.2-0.2-0.2-0.5c0-0.8,1.1-0.8,1.7-0.8l0,0c0.4,0,0.8,0,1.1,0.1c0.5,0.1,0.8,0.3,0.8,0.7
			c0,0.4-0.3,0.5-0.5,0.6l0,0c-0.1,0-0.1,0-0.1,0.1c0,0.1,0.1,0.2,0.1,0.3C181.5,14.8,181.7,15.1,181.8,15.3L181.8,15.3L181.8,15.3z
			"/>
		<path class="st0" d="M190.7,19.7c0.6,0,1.7-0.5,1.7-2.4c0-2.4-1.2-3.6-2.3-3.6c-0.6,0-1.7,0.5-1.7,2.3
			C188.4,18.5,189.7,19.7,190.7,19.7L190.7,19.7z M186.5,16.8c0-2.2,1.6-4.1,4.1-4.1c2.3,0,3.8,1.7,3.8,3.9c0,2.3-1.6,4.3-4,4.3
			C188,20.8,186.5,19,186.5,16.8L186.5,16.8z"/>
		<path class="st0" d="M196.3,15.3c0-0.4,0-1.1-0.2-1.4c-0.1-0.1-0.2-0.2-0.3-0.2c-0.2-0.1-0.4-0.2-0.4-0.4c0-0.7,0.9-0.6,1.8-0.6
			c0.8,0,1.8,0,1.8,0.6c0,0.3-0.3,0.4-0.4,0.4c-0.1,0-0.3,0.1-0.3,0.2c-0.1,0.1-0.2,0.5-0.2,0.9v0.4c0,0.1,0,0.4,0.1,0.4
			c0.1,0.1,0.3,0.1,0.7,0.1h1.7c0.4,0,0.6,0,0.7-0.1c0.1-0.1,0.1-0.4,0.1-0.4v-0.4c0-0.4-0.1-0.8-0.2-0.9c-0.1-0.1-0.2-0.2-0.3-0.2
			c-0.2-0.1-0.4-0.2-0.4-0.4c0-0.7,1-0.6,1.8-0.6c0.9,0,1.8,0,1.8,0.6c0,0.3-0.3,0.4-0.4,0.4c-0.2,0.1-0.3,0.1-0.3,0.2
			c-0.2,0.2-0.2,1-0.2,1.4v2.9c0,0.5,0,1.1,0.2,1.4c0.2,0.4,0.8,0.2,0.8,0.7c0,0.7-1,0.6-1.8,0.6c-0.7,0-1.8,0.1-1.8-0.6
			c0-0.3,0.3-0.4,0.4-0.5c0.2-0.1,0.3-0.1,0.3-0.2c0.1-0.1,0.2-0.5,0.2-0.9v-1.2c0-0.1,0-0.4-0.1-0.4c-0.1-0.1-0.2-0.1-0.7-0.1h-1.7
			c-0.4,0-0.6,0-0.7,0.1c-0.1,0.1-0.1,0.4-0.1,0.4v1.2c0,0.4,0.1,0.8,0.2,0.9c0.1,0.1,0.2,0.1,0.3,0.2c0.1,0.1,0.4,0.2,0.4,0.5
			c0,0.7-1.2,0.6-1.8,0.6c-0.6,0-1.8,0.1-1.8-0.6c0-0.3,0.3-0.4,0.4-0.5c0.2-0.1,0.3-0.1,0.3-0.2c0.2-0.2,0.2-0.9,0.2-1.4V15.3z"/>
		<path class="st0" d="M207.7,19.8C207.6,19.8,207.6,19.8,207.7,19.8c-0.1-0.3,0.2-0.5,0.6-2.4c0.4-2,0.3-2.7,0.5-3.2
			c0.1-0.2,0.3-0.5,0.7-0.5h0.4c0.5,0,0.8,0.1,0.9,0.3c0.2,0.3,0.1,1.6,0.1,2.7c0,0.3,0,0.6,0,0.9c0,0.1,0,1.6-0.1,1.8
			c-0.1,0.2-0.5,0.3-1,0.3H207.7L207.7,19.8z M207.6,13.1c-0.3,0-0.8,0-0.8,0.3c0,0.2,0.2,0.3,0.4,0.4c0.3,0.1,0.7,0.2,0.7,1.1
			c0,0.2,0,0.9-0.2,2c-0.3,1.5-0.8,3-1.2,3c-0.2,0-0.1-0.1-0.3-0.1c-0.5,0-0.5,0.7-0.5,1.3c0,0.2,0,1.2,0.3,1.2
			c0.3,0,0.3-0.3,0.4-0.6c0.2-0.5,0.5-1.1,1.7-1.1h2.8c1.3,0,1.6,0.7,1.7,1.3c0.1,0.2,0.1,0.5,0.4,0.5c0.3,0,0.3-0.8,0.3-1.2
			c0-0.5,0-1.3-0.5-1.3c-0.2,0-0.1,0.1-0.3,0.1c-0.1,0-0.3-0.1-0.3-0.2c-0.2-0.2-0.2-0.6-0.2-2.9v-0.9c0-1.7,0.1-1.8,0.3-1.9
			c0.1-0.1,0.2-0.1,0.3-0.1c0.1,0,0.4-0.1,0.4-0.3c0-0.5-1-0.4-1.4-0.4c-0.7,0-1.3,0.1-2,0.1C208.9,13.1,208.2,13.1,207.6,13.1
			L207.6,13.1z"/>
		<path class="st0" d="M208.5,17.5c0.2-1,0.3-1.7,0.3-2.2c0-0.4,0.1-0.7,0.2-0.9l0,0c0-0.1,0.1-0.2,0.2-0.2c0.1,0,0.1-0.1,0.2-0.1
			h0.4c0.2,0,0.3,0,0.5,0.1c0.1,0,0.1,0.1,0.1,0.1l0,0c0.1,0.2,0.1,1.2,0.1,2.1l0,1.3c0,0.1,0,0.7,0,1.2c0,0.2,0,0.4,0,0.4
			c0,0-0.1,0-0.2,0.1c-0.2,0-0.4,0.1-0.6,0.1H208C208.1,19.2,208.3,18.6,208.5,17.5L208.5,17.5z M212.6,19.5L212.6,19.5L212.6,19.5
			C212.6,19.5,212.6,19.5,212.6,19.5L212.6,19.5L212.6,19.5z M206.5,13.4L206.5,13.4c0,0.5,0.3,0.6,0.6,0.7l0,0
			c0.2,0.1,0.4,0.2,0.4,0.8c0,0.1,0,0.3,0,0.6c0,0.3-0.1,0.8-0.2,1.3c-0.1,0.8-0.3,1.5-0.6,2.1c-0.1,0.4-0.3,0.6-0.3,0.6
			c0,0,0,0,0,0c-0.1,0-0.1-0.1-0.2-0.1c-0.4,0-0.6,0.3-0.7,0.7c-0.1,0.3-0.1,0.6-0.1,0.9l0,0c0,0.3,0,1.5,0.6,1.5
			c0.5,0,0.6-0.4,0.7-0.8l0-0.1c0.1-0.2,0.2-0.4,0.3-0.6c0.2-0.2,0.5-0.3,1-0.3h2.8c0.6,0,0.9,0.1,1.1,0.3c0.2,0.2,0.3,0.4,0.3,0.7
			c0,0.1,0.1,0.3,0.2,0.4c0.1,0.2,0.3,0.3,0.5,0.3c0.6,0,0.6-1,0.6-1.5l0-0.1c0-0.6,0-1.6-0.8-1.6c-0.2,0-0.2,0-0.3,0.1c0,0,0,0,0,0
			c0,0,0,0,0,0l0,0c0,0,0,0,0,0c0,0-0.1-0.1-0.1-0.1c0,0-0.1-0.1-0.1-0.4c0-0.4,0-1,0-2.2v-0.9c0-0.8,0-1.3,0.1-1.5
			c0-0.1,0-0.1,0-0.2l0.1,0l0.1,0c0.2-0.1,0.6-0.1,0.6-0.6c0-0.8-1.1-0.8-1.7-0.8l-0.1,0c-0.3,0-0.7,0-1,0c-0.3,0-0.6,0-1,0
			c-0.3,0-0.6,0-0.9,0c-0.3,0-0.7,0-1,0C207.2,12.7,206.5,12.7,206.5,13.4z"/>
		<path class="st0" d="M217.9,18.1c0,0.6,0,0.7,0.2,0.9c0.4,0.5,1.1,0.8,1.7,0.8c1,0,1.9-0.8,1.9-2.7c0-2-0.9-3-2.1-3
			c-0.9,0-1.6,0.6-1.6,1.8V18.1L217.9,18.1z M217.8,13.6c0,0.1,0,0.2,0.1,0.2c0.1,0,0.1-0.1,0.2-0.1c0.1-0.1,0.3-0.3,0.4-0.3
			c0.5-0.4,1-0.7,1.8-0.7c1.6,0,3.3,1.2,3.3,3.8c0,2.8-1.9,4.3-3.6,4.3c-0.4,0-1-0.1-1.4-0.3c-0.4-0.2-0.5-0.3-0.6-0.3
			c-0.1,0-0.2,0.5-0.2,0.6v0.3c0,0.2,0,0.9,0.2,1.2c0.1,0.1,0.3,0.2,0.4,0.2c0.2,0,0.5,0.2,0.5,0.5c0,0.5-1,0.5-2,0.5
			c-0.7,0-1.9,0.1-1.9-0.6c0-0.3,0.3-0.4,0.4-0.4c0.1,0,0.2-0.1,0.3-0.2c0.2-0.2,0.3-0.6,0.3-3.3v-1.3c0-2.3,0-3.2-0.3-3.5
			c-0.2-0.1-0.3-0.1-0.6-0.2c-0.1-0.1-0.2-0.1-0.2-0.3c0-0.3,0.3-0.4,0.6-0.6c0.4-0.2,1.4-0.5,1.9-0.5c0.4,0,0.4,0.3,0.4,0.5V13.6z"
			/>
		<path class="st0" d="M229.2,19.7c0.6,0,1.7-0.5,1.7-2.4c0-2.4-1.2-3.6-2.3-3.6c-0.6,0-1.7,0.5-1.7,2.3
			C226.9,18.5,228.1,19.7,229.2,19.7L229.2,19.7z M224.9,16.8c0-2.2,1.6-4.1,4.1-4.1c2.3,0,3.8,1.7,3.8,3.9c0,2.3-1.6,4.3-4,4.3
			C226.5,20.8,224.9,19,224.9,16.8L224.9,16.8z"/>
		<path class="st0" d="M235.4,14.7c-0.2,0.3-0.3,0.4-0.5,0.4c-0.3,0-0.4-0.2-0.4-0.4c0-0.4,0.2-1,0.3-1.4c0.2-0.5,0.4-0.6,0.6-0.6
			c0.5,0,0.2,0.2,0.6,0.2c0.1,0,0.3,0,0.6-0.1c0.2,0,0.6-0.1,1-0.1c1.8,0,2.5,1,2.5,2.1c0,0.8-0.5,1.5-1.4,1.7
			c1.1,0.2,1.7,1,1.7,1.9c0,1.2-0.9,2.6-3,2.6c-0.4,0-0.8,0-1.2-0.1c-0.4-0.1-0.5-0.2-0.6-0.2c-0.1,0-0.2,0.1-0.3,0.1
			c-0.1,0-0.2,0.1-0.2,0.1c-0.2,0-0.3-0.1-0.4-0.1c-0.4-0.4-0.7-1.4-0.7-1.9c0-0.4,0.2-0.7,0.5-0.7c0.4,0,0.6,0.3,0.7,0.6
			c0.1,0.2,0.2,0.3,0.3,0.5c0.5,0.6,1.2,0.7,1.5,0.7c0.8,0,1.5-0.4,1.5-1.5c0-1.3-1.1-1.3-1.5-1.3h-0.4c-0.2,0-0.5,0-0.5-0.5
			c0-0.4,0.3-0.4,0.5-0.4h0.3c0.5,0,1.4-0.1,1.4-1.2c0-0.9-0.6-1.3-1.4-1.3c-0.7,0-1.2,0.3-1.4,0.8L235.4,14.7z"/>
	</g>
</g>
</svg>
