<svg xmlns="http://www.w3.org/2000/svg" viewBox="0 0 240.15 46.96"><defs><style>.cls-1{fill:#1c304f;}.cls-1,.cls-2,.cls-3,.cls-4{fill-rule:evenodd;}.cls-2{fill:#7faadb;}.cls-3{fill:#fff;}.cls-4{fill:#edf1fa;}</style></defs><title>Ресурс 1</title><g id="Слой_2" data-name="Слой 2"><g id="_1" data-name="1"><path class="cls-1" d="M76.3,35.94h-1v-6H73.13c0,.87-.1,1.62-.18,2.26a14.49,14.49,0,0,1-.28,1.64,5.74,5.74,0,0,1-.37,1.11,2.36,2.36,0,0,1-.44.67,1.38,1.38,0,0,1-.53.33,2,2,0,0,1-.59.09c-.38,0-.57-.07-.57-.2v-.65h.34a1.24,1.24,0,0,0,.37-.06.83.83,0,0,0,.35-.29,2.35,2.35,0,0,0,.32-.62,6.36,6.36,0,0,0,.28-1.08q.12-.68.21-1.65c.06-.66.1-1.44.14-2.35H76.3Z"/><path class="cls-1" d="M81.09,33a1.6,1.6,0,0,0-.08-.51,1.2,1.2,0,0,0-.23-.4,1,1,0,0,0-.38-.27,1.27,1.27,0,0,0-.5-.1,1.25,1.25,0,0,0-.92.34,1.67,1.67,0,0,0-.42.94Zm.76,2.26a2.17,2.17,0,0,1-.39.35,2.65,2.65,0,0,1-.48.23,2.33,2.33,0,0,1-.52.13,3.27,3.27,0,0,1-.53,0,2.6,2.6,0,0,1-.93-.17,2.16,2.16,0,0,1-.73-.5,2.21,2.21,0,0,1-.49-.8,3.51,3.51,0,0,1-.17-1.12,2.6,2.6,0,0,1,.16-.93,2.07,2.07,0,0,1,.45-.76,1.93,1.93,0,0,1,.71-.51,2.4,2.4,0,0,1,.95-.19,2.18,2.18,0,0,1,.82.15,1.87,1.87,0,0,1,.64.42,2,2,0,0,1,.43.68,2.65,2.65,0,0,1,.15.92.52.52,0,0,1,0,.29.18.18,0,0,1-.17.07H78.53a2.46,2.46,0,0,0,.13.76,1.44,1.44,0,0,0,.3.53,1.23,1.23,0,0,0,.46.32,1.55,1.55,0,0,0,.59.1,1.77,1.77,0,0,0,.54-.07,2.45,2.45,0,0,0,.39-.15l.27-.16a.48.48,0,0,1,.2-.07.2.2,0,0,1,.17.09Z"/><path class="cls-1" d="M86.78,31.11v4.83h-.93v-2a6.57,6.57,0,0,1-1.16.2,2.57,2.57,0,0,1-1-.1,1.22,1.22,0,0,1-.63-.45,1.41,1.41,0,0,1-.23-.87v-1.6h.93v1.45a.9.9,0,0,0,.13.53.61.61,0,0,0,.38.28,1.81,1.81,0,0,0,.64.05,5.9,5.9,0,0,0,.89-.15V31.11Z"/><path class="cls-1" d="M91.52,33a1.6,1.6,0,0,0-.08-.51,1.05,1.05,0,0,0-.23-.4.91.91,0,0,0-.37-.27,1.31,1.31,0,0,0-.5-.1,1.25,1.25,0,0,0-.92.34A1.62,1.62,0,0,0,89,33Zm.76,2.26a1.88,1.88,0,0,1-.39.35,2.65,2.65,0,0,1-.48.23,2.2,2.2,0,0,1-.52.13,3.17,3.17,0,0,1-.53,0,2.51,2.51,0,0,1-.92-.17,2.2,2.2,0,0,1-.74-.5,2.06,2.06,0,0,1-.48-.8A3.25,3.25,0,0,1,88,33.42a2.84,2.84,0,0,1,.16-.93,2.39,2.39,0,0,1,.45-.76,2,2,0,0,1,.72-.51,2.37,2.37,0,0,1,.95-.19,2.16,2.16,0,0,1,.81.15,2,2,0,0,1,.65.42,1.87,1.87,0,0,1,.42.68,2.65,2.65,0,0,1,.16.92.62.62,0,0,1,0,.29s-.09.07-.18.07H89a2.82,2.82,0,0,0,.12.76,1.44,1.44,0,0,0,.3.53,1.23,1.23,0,0,0,.46.32,1.63,1.63,0,0,0,.59.1A1.73,1.73,0,0,0,91,35.2a2.45,2.45,0,0,0,.39-.15l.28-.16a.45.45,0,0,1,.19-.07.2.2,0,0,1,.18.09Z"/><polygon class="cls-1" points="97.66 31.11 97.66 35.94 96.73 35.94 96.73 33.72 94.52 33.72 94.52 35.94 93.59 35.94 93.59 31.11 94.52 31.11 94.52 33.01 96.73 33.01 96.73 31.11 97.66 31.11"/><path class="cls-1" d="M103.39,31.11v4.83h-.93V32.78a1.62,1.62,0,0,1,0-.21,1.79,1.79,0,0,1,0-.23c0,.06-.06.13-.09.18l-.09.16-2.22,3a.67.67,0,0,1-.14.16.28.28,0,0,1-.19.07H99.2V31.11h.92v3.16a1.55,1.55,0,0,1,0,.21.85.85,0,0,1,0,.23,2.25,2.25,0,0,1,.19-.33l2.22-3a1,1,0,0,1,.14-.15.3.3,0,0,1,.2-.08Z"/><path class="cls-1" d="M108.12,33a1.37,1.37,0,0,0-.08-.51.94.94,0,0,0-.23-.4.91.91,0,0,0-.37-.27,1.27,1.27,0,0,0-.5-.1,1.25,1.25,0,0,0-.92.34,1.68,1.68,0,0,0-.43.94Zm.77,2.26a2.23,2.23,0,0,1-.4.35,2.56,2.56,0,0,1-.47.23,2.33,2.33,0,0,1-.52.13,3.27,3.27,0,0,1-.53,0,2.6,2.6,0,0,1-.93-.17,2.07,2.07,0,0,1-.73-.5,2.21,2.21,0,0,1-.49-.8,3.51,3.51,0,0,1-.17-1.12,2.6,2.6,0,0,1,.16-.93,2.2,2.2,0,0,1,.44-.76,2.05,2.05,0,0,1,.72-.51,2.4,2.4,0,0,1,1-.19,2.18,2.18,0,0,1,.82.15,1.87,1.87,0,0,1,.64.42,2,2,0,0,1,.43.68,2.65,2.65,0,0,1,.15.92.62.62,0,0,1,0,.29.18.18,0,0,1-.17.07h-3.17a2.82,2.82,0,0,0,.12.76,1.61,1.61,0,0,0,.31.53,1.16,1.16,0,0,0,.46.32,1.55,1.55,0,0,0,.59.1,1.66,1.66,0,0,0,.53-.07,2.45,2.45,0,0,0,.39-.15,3.08,3.08,0,0,0,.28-.16.44.44,0,0,1,.2-.07.2.2,0,0,1,.17.09Z"/><path class="cls-1" d="M116.22,32l-.08.09a.21.21,0,0,1-.12,0,.29.29,0,0,1-.16-.06l-.21-.13a1.41,1.41,0,0,0-.74-.19,1.33,1.33,0,0,0-.61.13,1.13,1.13,0,0,0-.43.35,1.49,1.49,0,0,0-.27.55,3,3,0,0,0,0,1.49,1.54,1.54,0,0,0,.27.56,1.18,1.18,0,0,0,.43.34,1.28,1.28,0,0,0,.56.12,1.64,1.64,0,0,0,.49-.07,2.56,2.56,0,0,0,.33-.16l.21-.16a.29.29,0,0,1,.18-.08.2.2,0,0,1,.17.09l.27.34a2,2,0,0,1-.37.35,2.64,2.64,0,0,1-.44.23,2.09,2.09,0,0,1-.49.13,3,3,0,0,1-.52,0,2.14,2.14,0,0,1-.84-.17,1.82,1.82,0,0,1-.68-.49,2.3,2.3,0,0,1-.46-.78,3.43,3.43,0,0,1,0-2,2.25,2.25,0,0,1,.44-.79,2.12,2.12,0,0,1,.72-.52,2.52,2.52,0,0,1,1-.19,2.31,2.31,0,0,1,.91.17,2.25,2.25,0,0,1,.71.47Z"/><polygon class="cls-1" points="121.69 35.94 120.76 35.94 120.76 31.81 118.55 31.81 118.55 35.94 117.62 35.94 117.62 31.11 121.69 31.11 121.69 35.94"/><path class="cls-1" d="M127.42,31.11v4.83h-.93V32.78a1.62,1.62,0,0,1,0-.21,1.79,1.79,0,0,1,0-.23l-.09.18-.09.16-2.22,3a1,1,0,0,1-.14.16.28.28,0,0,1-.19.07h-.56V31.11h.92v3.16a1.55,1.55,0,0,1,0,.21.85.85,0,0,1,0,.23,2.25,2.25,0,0,1,.19-.33l2.22-3a.64.64,0,0,1,.14-.15.3.3,0,0,1,.2-.08Z"/><polygon class="cls-1" points="133.02 31.11 133.02 35.94 132.09 35.94 132.09 33.72 129.88 33.72 129.88 35.94 128.95 35.94 128.95 31.11 129.88 31.11 129.88 33.01 132.09 33.01 132.09 31.11 133.02 31.11"/><path class="cls-1" d="M140.16,31.11v4.83h-.92V31.11Zm-3.72,4.15a1,1,0,0,0,.71-.23.78.78,0,0,0,.24-.59,1,1,0,0,0,0-.3.73.73,0,0,0-.17-.26.89.89,0,0,0-.29-.17,1.53,1.53,0,0,0-.45-.06h-1v1.61Zm0-2.29a2.57,2.57,0,0,1,.84.12,1.55,1.55,0,0,1,.55.33,1.29,1.29,0,0,1,.31.46,1.71,1.71,0,0,1,.09.55,1.54,1.54,0,0,1-.12.61,1.45,1.45,0,0,1-.34.48,1.77,1.77,0,0,1-.56.31,2.49,2.49,0,0,1-.76.11h-1.88V31.11h.88V33Z"/><path class="cls-1" d="M148.53,31.11v4.83h-.93V32.78c0-.06,0-.13,0-.21l0-.23c0,.06-.06.13-.09.18l-.09.16-2.22,3-.14.16a.29.29,0,0,1-.2.07h-.56V31.11h.93v3.16a1.55,1.55,0,0,1,0,.21l0,.23a1.6,1.6,0,0,1,.19-.33l2.22-3a.64.64,0,0,1,.14-.15.29.29,0,0,1,.19-.08Z"/><path class="cls-1" d="M156.09,32a.36.36,0,0,1-.08.09.21.21,0,0,1-.12,0,.29.29,0,0,1-.16-.06l-.21-.13a1.41,1.41,0,0,0-.74-.19,1.26,1.26,0,0,0-.6.13,1.16,1.16,0,0,0-.44.35,1.65,1.65,0,0,0-.26.55,3.13,3.13,0,0,0,0,1.49,2,2,0,0,0,.27.56,1.18,1.18,0,0,0,.43.34,1.31,1.31,0,0,0,.56.12,1.72,1.72,0,0,0,.5-.07,2.38,2.38,0,0,0,.32-.16,2.26,2.26,0,0,0,.21-.16.29.29,0,0,1,.18-.08.21.21,0,0,1,.18.09l.26.34a1.75,1.75,0,0,1-.37.35,2.64,2.64,0,0,1-.44.23,2.09,2.09,0,0,1-.49.13,3,3,0,0,1-.52,0,2.14,2.14,0,0,1-.84-.17,1.82,1.82,0,0,1-.68-.49,2.29,2.29,0,0,1-.45-.78,3.33,3.33,0,0,1,0-2,2.25,2.25,0,0,1,.44-.79,2.22,2.22,0,0,1,.72-.52,2.52,2.52,0,0,1,1-.19,2.4,2.4,0,0,1,.92.17,2.33,2.33,0,0,1,.7.47Z"/><path class="cls-1" d="M161.72,31.11,159,37.34a.27.27,0,0,1-.11.16.33.33,0,0,1-.21.06H158l.89-1.92-2-4.53h.81a.29.29,0,0,1,.19.06.3.3,0,0,1,.09.13l1.23,2.9a1.42,1.42,0,0,1,.07.22.79.79,0,0,1,.06.22c0-.08,0-.15.07-.23a2,2,0,0,0,.08-.22l1.19-2.89a.36.36,0,0,1,.1-.14.3.3,0,0,1,.16-.05Z"/><path class="cls-1" d="M165.91,32l-.08.09a.21.21,0,0,1-.12,0,.27.27,0,0,1-.16-.06l-.21-.13a1.69,1.69,0,0,0-.3-.13,1.42,1.42,0,0,0-.44-.06,1.33,1.33,0,0,0-.61.13,1.13,1.13,0,0,0-.43.35,1.49,1.49,0,0,0-.27.55,3,3,0,0,0,0,1.49,1.54,1.54,0,0,0,.27.56,1.18,1.18,0,0,0,.43.34,1.28,1.28,0,0,0,.56.12,1.64,1.64,0,0,0,.49-.07,2.56,2.56,0,0,0,.33-.16l.21-.16a.29.29,0,0,1,.18-.08.2.2,0,0,1,.17.09l.27.34a1.8,1.8,0,0,1-.38.35,2.22,2.22,0,0,1-.43.23,2.09,2.09,0,0,1-.49.13,3,3,0,0,1-.52,0,2.14,2.14,0,0,1-.84-.17,1.82,1.82,0,0,1-.68-.49,2.48,2.48,0,0,1-.46-.78,3.43,3.43,0,0,1,0-2,2.07,2.07,0,0,1,1.16-1.31,2.48,2.48,0,0,1,1-.19,2.34,2.34,0,0,1,.91.17,2.37,2.37,0,0,1,.71.47Z"/><polygon class="cls-1" points="171.36 31.81 169.53 31.81 169.53 35.94 168.6 35.94 168.6 31.81 166.78 31.81 166.78 31.11 171.36 31.11 171.36 31.81"/><path class="cls-1" d="M174.93,33.8a7.7,7.7,0,0,0-1,.08,2.67,2.67,0,0,0-.65.19.76.76,0,0,0-.35.27.51.51,0,0,0-.11.34.75.75,0,0,0,.06.31.6.6,0,0,0,.16.22.9.9,0,0,0,.24.12,1.39,1.39,0,0,0,.3,0,1.61,1.61,0,0,0,.39,0,2,2,0,0,0,.34-.12,2.49,2.49,0,0,0,.3-.19l.28-.26v-1Zm-2.72-2a2.82,2.82,0,0,1,.87-.58,2.75,2.75,0,0,1,1-.19,2.12,2.12,0,0,1,.74.13,1.54,1.54,0,0,1,.86,1,2.27,2.27,0,0,1,.11.75v3.08h-.41a.41.41,0,0,1-.21,0,.32.32,0,0,1-.11-.17l-.1-.43a4.68,4.68,0,0,1-.37.31,2.88,2.88,0,0,1-.38.22,1.88,1.88,0,0,1-.42.14,2.46,2.46,0,0,1-.49.05,1.91,1.91,0,0,1-.54-.08,1.14,1.14,0,0,1-.43-.24,1.22,1.22,0,0,1-.29-.41,1.4,1.4,0,0,1-.11-.56,1.08,1.08,0,0,1,.15-.55,1.38,1.38,0,0,1,.51-.47,3.14,3.14,0,0,1,.91-.35,6.63,6.63,0,0,1,1.39-.15v-.35a1.2,1.2,0,0,0-.24-.82.84.84,0,0,0-.68-.27,1.61,1.61,0,0,0-.87.25,2,2,0,0,0-.26.17.39.39,0,0,1-.23.07.28.28,0,0,1-.16,0,.68.68,0,0,1-.12-.12Z"/><path class="cls-1" d="M179.2,35.29a1.11,1.11,0,0,0,.71-.21.71.71,0,0,0,.26-.58.93.93,0,0,0,0-.29A.46.46,0,0,0,180,34a.86.86,0,0,0-.3-.16,2,2,0,0,0-.46,0h-1v1.52Zm-1-3.56v1.45h.89a1.1,1.1,0,0,0,.37-.06.9.9,0,0,0,.29-.16.74.74,0,0,0,.26-.56.7.7,0,0,0,0-.25.51.51,0,0,0-.15-.21.58.58,0,0,0-.28-.15,1.42,1.42,0,0,0-.44-.06Zm.92-.62a2.91,2.91,0,0,1,.77.09,1.73,1.73,0,0,1,.53.24,1.08,1.08,0,0,1,.31.37,1.14,1.14,0,0,1,.1.45,1.32,1.32,0,0,1-.05.33,1.3,1.3,0,0,1-.14.32,1.14,1.14,0,0,1-.29.29,1.56,1.56,0,0,1-.45.2,1.56,1.56,0,0,1,.83.38,1,1,0,0,1,.3.75,1.21,1.21,0,0,1-.15.62,1.28,1.28,0,0,1-.39.44,1.61,1.61,0,0,1-.58.26,2.71,2.71,0,0,1-.71.09h-1.88V31.11Z"/><path class="cls-1" d="M184.35,35.28a1.19,1.19,0,0,0,1-.46,2.19,2.19,0,0,0,.34-1.3,2.23,2.23,0,0,0-.34-1.3,1.21,1.21,0,0,0-1-.46,1.23,1.23,0,0,0-1,.46,2.23,2.23,0,0,0-.34,1.3,2.19,2.19,0,0,0,.34,1.3,1.2,1.2,0,0,0,1,.46Zm0-4.25a2.49,2.49,0,0,1,1,.18,1.87,1.87,0,0,1,.73.5,2.26,2.26,0,0,1,.47.78,3.4,3.4,0,0,1,0,2.06,2.3,2.3,0,0,1-.47.79,2,2,0,0,1-.73.49,2.68,2.68,0,0,1-1.93,0,2,2,0,0,1-.73-.49,2.16,2.16,0,0,1-.47-.79,3.21,3.21,0,0,1,0-2.06,2.12,2.12,0,0,1,.47-.78,1.87,1.87,0,0,1,.73-.5A2.5,2.5,0,0,1,184.35,31Z"/><path class="cls-1" d="M189.82,35.29a1.11,1.11,0,0,0,.71-.21.71.71,0,0,0,.26-.58.93.93,0,0,0,0-.29.46.46,0,0,0-.16-.23.86.86,0,0,0-.3-.16,2,2,0,0,0-.46,0h-1v1.52Zm-1-3.56v1.45h.89a1.1,1.1,0,0,0,.37-.06.9.9,0,0,0,.29-.16.74.74,0,0,0,.26-.56.7.7,0,0,0,0-.25.51.51,0,0,0-.15-.21.58.58,0,0,0-.28-.15,1.42,1.42,0,0,0-.44-.06Zm.92-.62a2.91,2.91,0,0,1,.77.09,1.73,1.73,0,0,1,.53.24,1.08,1.08,0,0,1,.31.37,1.13,1.13,0,0,1,.09.45,1.29,1.29,0,0,1,0,.33,1,1,0,0,1-.15.32,1,1,0,0,1-.28.29,1.56,1.56,0,0,1-.45.2,1.56,1.56,0,0,1,.83.38,1,1,0,0,1,.29.75,1.21,1.21,0,0,1-.14.62,1.28,1.28,0,0,1-.39.44,1.61,1.61,0,0,1-.58.26,2.71,2.71,0,0,1-.71.09h-1.88V31.11Z"/><path class="cls-2" d="M47,23.48A23.48,23.48,0,1,1,23.48,0,23.48,23.48,0,0,1,47,23.48Z"/><path class="cls-3" d="M60.88,19.24a3.67,3.67,0,0,0-5.26-1.47l-2.3,1.36c-.53-3.21-3.27-5.1-6.2-4.28a23.86,23.86,0,0,1-8,1.83H39a24,24,0,0,1-8-1.83c-2.93-.82-5.67,1.07-6.2,4.28l-2.3-1.36a3.67,3.67,0,0,0-5.26,1.47,4.37,4.37,0,0,0,1.71,5.61l5.41,3.21.19.11c.13,1.26.23,1.82.23,1.82.4,3.33,3.21,5.2,6.15,4.2A25,25,0,0,1,39,32.42h.18a25,25,0,0,1,8.06,1.77c2.94,1,5.75-.87,6.15-4.2a14.45,14.45,0,0,0,.22-1.82l.2-.11,5.4-3.21A4.37,4.37,0,0,0,60.88,19.24Z"/><path class="cls-4" d="M38.43,32.32C25.3,30.18,26.8,15.86,26.84,15.44a5.49,5.49,0,0,0-2.26,3.69l-2.3-1.36A3.67,3.67,0,0,0,17,19.24a4.37,4.37,0,0,0,1.72,5.61l5.4,3.21.2.11c.13,1.26.23,1.82.23,1.82.39,3.33,3.21,5.2,6.15,4.2a25,25,0,0,1,8.06-1.77H39Z"/><path class="cls-1" d="M45.31,41c0,1.89-2.83,3.41-6.31,3.41S32.7,42.93,32.7,41s2.82-3.41,6.3-3.41S45.31,39.16,45.31,41Z"/><path class="cls-3" d="M43.23,41c0,1-1.89,1.84-4.23,1.84s-4.23-.82-4.23-1.84S36.67,39.2,39,39.2,43.23,40,43.23,41Z"/><path class="cls-1" d="M45.31,8.18c0,1.89-2.83,3.41-6.31,3.41s-6.3-1.52-6.3-3.41,2.82-3.4,6.3-3.4S45.31,6.3,45.31,8.18Z"/><path class="cls-3" d="M43.23,8.18c0,1-1.89,1.85-4.23,1.85s-4.23-.83-4.23-1.85S36.67,6.34,39,6.34,43.23,7.17,43.23,8.18Z"/><path class="cls-3" d="M31.54,24.7s4.28-1.77,4,3.14A4.68,4.68,0,0,0,31.54,24.7Z"/><path class="cls-1" d="M39.74,31.65a26.57,26.57,0,0,1,7.75,1.82,4.12,4.12,0,0,0,1.27.21,4,4,0,0,0,3.8-3.78l0-.11a16,16,0,0,0,.2-1.69l0-.43.45-.23.09-.05,5.4-3.21a3.58,3.58,0,0,0,1.42-4.59A2.82,2.82,0,0,0,57.62,18a3.1,3.1,0,0,0-1.6.45l-3.28,1.95-.19-1.13a4.08,4.08,0,0,0-5.17-3.67,25.07,25.07,0,0,1-7.62,1.86H39a24.2,24.2,0,0,1-8.27-1.88,4.08,4.08,0,0,0-5.17,3.67l-.19,1.13-3.28-1.95a3.13,3.13,0,0,0-1.6-.45,2.81,2.81,0,0,0-2.56,1.6,3.58,3.58,0,0,0,1.42,4.59l5.4,3.21.09.05.44.23,0,.42c.13,1.21.22,1.76.22,1.76a4,4,0,0,0,3.81,3.83,4.12,4.12,0,0,0,1.32-.23A25.27,25.27,0,0,1,39,31.64Zm9,3.59h0a5.84,5.84,0,0,1-1.83-.3,24.35,24.35,0,0,0-7.67-1.73h-.64a24.64,24.64,0,0,0-7.43,1.71,5.74,5.74,0,0,1-1.87.32A5.49,5.49,0,0,1,24,30.08h0s-.08-.45-.18-1.43l-5.27-3.12a5.18,5.18,0,0,1-2-6.64,4.39,4.39,0,0,1,4-2.47,4.7,4.7,0,0,1,2.4.67l1.39.83a5.67,5.67,0,0,1,5.35-4,6.05,6.05,0,0,1,1.57.21l.1,0a24.44,24.44,0,0,0,7.15,1.76h1.44a24.26,24.26,0,0,0,7-1.75l.1,0a6.05,6.05,0,0,1,1.57-.21,5.65,5.65,0,0,1,5.34,4l1.4-.83a4.7,4.7,0,0,1,2.4-.67,4.39,4.39,0,0,1,4,2.47,5.18,5.18,0,0,1-2,6.64l-5.25,3.12a14.54,14.54,0,0,1-.2,1.47A5.47,5.47,0,0,1,48.76,35.24Z"/><path class="cls-1" d="M77,19.76c.35,0,.48-.11.55-.3a9.3,9.3,0,0,0,.22-2.38V13.81A20.28,20.28,0,0,0,77.54,11c-.09-.29-.23-.34-.93-.34h-.43a1.3,1.3,0,0,0-1.39,1,8.69,8.69,0,0,0-.22,1.66,34.91,34.91,0,0,1-.7,4.31c-.31,1.33-.43,1.59-.45,1.76v.09c0,.13,0,.33.26.33Zm-2.71,1.08a4.19,4.19,0,0,0-2.14.34,2.14,2.14,0,0,0-.74,1.31c-.08.28-.2.85-.63.85-.64,0-.63-.8-.63-1.59s0-2.33.86-2.33a.64.64,0,0,1,.31.11.52.52,0,0,0,.21.07c.63,0,1.06-1.64,1.26-2.36a22.21,22.21,0,0,0,.69-4.55c0-.55,0-1.33-.4-1.62-.23-.17-.37-.08-.81-.37a.67.67,0,0,1-.34-.54c0-.67.69-.67.94-.67.93,0,1.86.08,2.8.08,2.88,0,2-.06,3.09-.06,1.6,0,2.13.05,2.13.54s-.29.43-.5.53-.35.17-.4.24a29.92,29.92,0,0,0-.23,4.92c0,3.06.09,3.88.55,3.88a.7.7,0,0,0,.29-.09.69.69,0,0,1,.36-.11c.78,0,.81,1.47.81,2.39,0,.71,0,1.53-.63,1.53-.43,0-.55-.57-.63-.85a2.12,2.12,0,0,0-.73-1.31,4.29,4.29,0,0,0-2.18-.34Z"/><path class="cls-1" d="M86.81,20c.65,0,1.72-.5,1.72-2.37,0-2.39-1.23-3.63-2.25-3.63-.63,0-1.72.46-1.72,2.33,0,2.4,1.23,3.67,2.25,3.67Zm-4.23-3a4,4,0,0,1,4.08-4.13,3.72,3.72,0,0,1,3.83,3.93,4.07,4.07,0,0,1-4,4.27A3.89,3.89,0,0,1,82.58,17Z"/><path class="cls-1" d="M92.62,15.58a3.5,3.5,0,0,0-.15-1.32.81.81,0,0,0-.34-.21c-.14,0-.43-.15-.43-.46,0-.65,1.16-.57,1.82-.57s1.83-.08,1.83.59c0,.29-.28.38-.43.44a.81.81,0,0,0-.34.21,1.88,1.88,0,0,0-.15.89v.43a1.42,1.42,0,0,0,.09.59.56.56,0,0,0,.41.14h.4a1,1,0,0,0,.87-.68c.31-.6.31-1,.63-1.7a1.59,1.59,0,0,1,1.46-1A1.14,1.14,0,0,1,99.56,14a.94.94,0,0,1-1,.93.86.86,0,0,1-.55-.17.82.82,0,0,0-.4-.17c-.27.39-.15.53-.46,1.21a2.06,2.06,0,0,1-.61.83v.05a2.24,2.24,0,0,1,1.2.69,5.09,5.09,0,0,1,.66,1.27c.24.6.41.79.69.93a1.25,1.25,0,0,0,.41.14c.34.09.55.21.55.51s-.37.75-1.32.75a2.13,2.13,0,0,1-1.22-.37,2.84,2.84,0,0,1-.78-1.36,4,4,0,0,0-.8-1.76,1.13,1.13,0,0,0-.81-.26,1.35,1.35,0,0,0-.59.06c-.15.09-.13.42-.13,1.08v.43a1.76,1.76,0,0,0,.15.9c0,.05.11.11.34.2s.43.16.43.43c0,.64-.95.61-1.83.61-.63,0-1.82.07-1.82-.59,0-.29.28-.39.43-.45a.7.7,0,0,0,.34-.2,3.56,3.56,0,0,0,.15-1.33Z"/><path class="cls-1" d="M105.66,13a14.51,14.51,0,0,0,1.76-.16c.82,0,.86,1.13.86,1.69s0,1-.42,1c-.2,0-.27-.14-.34-.27s-.1-.21-.15-.31-.11-.28-.18-.42a1.09,1.09,0,0,0-1.12-.63c-.23,0-.45,0-.54.12s-.12.26-.12,1.54v2.77c0,1,.08,1.24.15,1.33a.73.73,0,0,0,.34.2c.17.06.43.17.43.43,0,.64-1,.61-1.83.61s-1.82,0-1.82-.61c0-.26.26-.37.43-.43a.73.73,0,0,0,.34-.2c.07-.09.15-.32.15-1.33V15.58c0-1.28-.08-1.48-.12-1.54s-.31-.12-.54-.12a1.1,1.1,0,0,0-1.12.63c-.07.14-.12.28-.18.42a2.89,2.89,0,0,1-.15.31c-.06.13-.14.27-.34.27-.41,0-.41-.58-.41-1,0-.81.12-1.69.87-1.69a11.41,11.41,0,0,0,1.75.16Z"/><path class="cls-1" d="M113.18,20c.64,0,1.71-.5,1.71-2.37,0-2.39-1.22-3.63-2.25-3.63-.63,0-1.72.46-1.72,2.33,0,2.4,1.23,3.67,2.26,3.67ZM109,17A4,4,0,0,1,113,12.86a3.72,3.72,0,0,1,3.83,3.93,4.07,4.07,0,0,1-4,4.27A3.88,3.88,0,0,1,109,17Z"/><path class="cls-1" d="M120.68,18.24c0,.61,0,.73.16.93a2.13,2.13,0,0,0,1.65.8c1,0,1.9-.82,1.9-2.69s-.93-3-2.11-3c-.91,0-1.6.57-1.6,1.79v2.15Zm-.07-4.43c0,.11,0,.2.07.2s.11-.06.19-.14a4.1,4.1,0,0,1,.38-.3,3,3,0,0,1,1.84-.71c1.62,0,3.29,1.26,3.29,3.85,0,2.83-1.91,4.31-3.6,4.31a4.76,4.76,0,0,1-1.44-.3c-.38-.16-.49-.27-.57-.27s-.16.5-.16.62v.34a2.68,2.68,0,0,0,.2,1.21c.1.14.32.17.44.2s.54.15.54.48c0,.54-1,.54-2,.54-.7,0-1.91.08-1.91-.57,0-.3.26-.39.43-.45a.77.77,0,0,0,.3-.17c.16-.17.28-.57.28-3.36V18c0-2.33,0-3.21-.32-3.48-.16-.12-.26-.06-.6-.23a.34.34,0,0,1-.23-.32c0-.3.26-.44.6-.58a7.1,7.1,0,0,1,1.88-.49c.4,0,.42.29.42.51Z"/><path class="cls-1" d="M173.21,20c.64,0,1.71-.5,1.71-2.37,0-2.39-1.22-3.63-2.25-3.63-.62,0-1.71.46-1.71,2.33,0,2.4,1.22,3.67,2.25,3.67ZM169,17a4,4,0,0,1,4.08-4.13,3.72,3.72,0,0,1,3.83,3.93,4.08,4.08,0,0,1-4,4.27A3.88,3.88,0,0,1,169,17Z"/><path class="cls-1" d="M137.21,19.39c.93,0,2.49-.72,2.49-3.43,0-3.48-1.78-5.27-3.27-5.27-.91,0-2.49.67-2.49,3.38,0,3.48,1.78,5.32,3.27,5.32Zm-5.92-4.31c0-3.25,2.16-6,5.69-6,3.32,0,5.29,2.44,5.29,5.74S140.19,21,136.72,21s-5.43-2.67-5.43-5.9Z"/><path class="cls-1" d="M147.56,13.23a3.87,3.87,0,0,0-2.22.72,4,4,0,0,0-1.43,3.12,3.42,3.42,0,0,0,3.53,3.64,3.49,3.49,0,0,0,2.55-1,1.13,1.13,0,0,0,.41-.75.27.27,0,0,0-.27-.29.57.57,0,0,0-.35.17c-.25.22-.33.34-.63.57a2.36,2.36,0,0,1-1.41.51c-1.23,0-2.55-1-2.55-3.16s1.22-2.86,2.31-2.86a1.44,1.44,0,0,1,1.42,1c.18.34.35.74.81.74a.64.64,0,0,0,.63-.67,1.68,1.68,0,0,0-1-1.29A4,4,0,0,0,147.56,13.23Z"/><path class="cls-1" d="M146.3,13.09a4.16,4.16,0,0,1,1.26-.21,4.24,4.24,0,0,1,1,.14,3.91,3.91,0,0,1,.95.37h0a2.89,2.89,0,0,1,.8.69,1.51,1.51,0,0,1,.33.9,1,1,0,0,1-.28.72.91.91,0,0,1-.67.29c-.63,0-.85-.45-1.06-.87l0-.06a1.65,1.65,0,0,0-.42-.61,1,1,0,0,0-.72-.23,1.85,1.85,0,0,0-1.46.68,2.88,2.88,0,0,0-.54,1.84c0,1.88,1.16,2.82,2.24,2.82a1.74,1.74,0,0,0,.72-.15,2.37,2.37,0,0,0,.51-.3,2.6,2.6,0,0,0,.33-.29c.08-.08.16-.16.29-.27h0a1.07,1.07,0,0,1,.27-.17.57.57,0,0,1,.69.11.65.65,0,0,1,.17.45,1.08,1.08,0,0,1-.16.53,1.9,1.9,0,0,1-.36.47h0a4.12,4.12,0,0,1-1.12.78,4,4,0,0,1-1.64.34A3.78,3.78,0,0,1,144.67,20a4,4,0,0,1-1.08-2.88,4.61,4.61,0,0,1,.41-1.92,3.88,3.88,0,0,1,1.16-1.47h0a4.22,4.22,0,0,1,1.14-.58Z"/><path class="cls-1" d="M157.11,13.11a14.51,14.51,0,0,0,1.76-.16c.83,0,.86,1.13.86,1.69s0,1-.42,1c-.2,0-.27-.13-.33-.27a3.07,3.07,0,0,1-.16-.31c-.06-.14-.11-.28-.18-.42a1.09,1.09,0,0,0-1.12-.63c-.23,0-.44,0-.54.12s-.12.26-.12,1.54v2.77c0,1,.08,1.24.15,1.33a.66.66,0,0,0,.34.2c.17.06.43.17.43.43,0,.64-.95.61-1.82.61s-1.83,0-1.83-.61c0-.26.26-.37.43-.43a.62.62,0,0,0,.34-.2c.08-.09.15-.32.15-1.33V15.67c0-1.28-.07-1.48-.12-1.54s-.31-.12-.54-.12a1.08,1.08,0,0,0-1.11.63,3.89,3.89,0,0,0-.19.42,2.89,2.89,0,0,1-.15.31.36.36,0,0,1-.34.27c-.41,0-.41-.58-.41-1,0-.8.12-1.69.87-1.69a11.41,11.41,0,0,0,1.75.16Z"/><path class="cls-1" d="M166,16.05h-3.56c-.07,0-.25,0-.25-.23a2.23,2.23,0,0,1,.64-1.3,2.1,2.1,0,0,1,1.5-.67,1.9,1.9,0,0,1,1.95,1.83c0,.29,0,.37-.28.37Zm.86.6c.49,0,.59-.07.59-.58a2.69,2.69,0,0,0-2.92-2.88A3.67,3.67,0,0,0,160.83,17a3.49,3.49,0,0,0,3.5,3.67,3.72,3.72,0,0,0,2.64-1.1,1.51,1.51,0,0,0,.43-.8.25.25,0,0,0-.24-.26.54.54,0,0,0-.39.19c-.25.24-.35.4-.61.62a2.51,2.51,0,0,1-1.53.54A2.69,2.69,0,0,1,162.12,17c0-.23,0-.33.26-.33Z"/><path class="cls-1" d="M166,15.78s0,0,0,0Zm-3.46-.07a1.65,1.65,0,0,1,.13-.37,2.3,2.3,0,0,1,.4-.57h0a2,2,0,0,1,.59-.42,1.72,1.72,0,0,1,.69-.15,1.66,1.66,0,0,1,1.16.45,1.43,1.43,0,0,1,.47,1v0Zm-.07,1.21h0s0,0,0,0Zm5.1-.11h0a.94.94,0,0,0,.22-.74,3.28,3.28,0,0,0-.9-2.37,3.22,3.22,0,0,0-2.34-.85A3.86,3.86,0,0,0,161.66,14a4.32,4.32,0,0,0-1.14,3,4.13,4.13,0,0,0,1.09,2.88,3.69,3.69,0,0,0,2.72,1.14,4.06,4.06,0,0,0,1.56-.32,3.87,3.87,0,0,0,1.3-.88,2.78,2.78,0,0,0,.37-.51,1.15,1.15,0,0,0,.16-.54.62.62,0,0,0-.17-.43.51.51,0,0,0-.39-.17.76.76,0,0,0-.37.1,1.08,1.08,0,0,0-.24.18l-.24.26a3.63,3.63,0,0,1-.34.34,2.3,2.3,0,0,1-1.34.47,2,2,0,0,1-1.55-.72,2.83,2.83,0,0,1-.64-1.85h4.39A1,1,0,0,0,167.52,16.81Z"/><path class="cls-1" d="M181.57,15.47l.12.18.58-.94c.12-.2.24-.39.29-.5l-.06,0c-.25-.1-.47-.18-.47-.57,0-.73.8-.73,1.4-.73h.17c.59,0,1.38,0,1.38.73,0,.37-.21.46-.45.56l-.3.13-.08,0a2.25,2.25,0,0,0-.31.35c-.2.27-.51.72-1,1.48l-.41.66.9,1.42c.11.18.32.48.52.76a4,4,0,0,0,.34.42h0a1.3,1.3,0,0,0,.2.17l.17.07h0c.23.08.49.17.49.59,0,.78-1.18.78-1.78.78h-.08c-.64,0-1.77,0-1.77-.78a.57.57,0,0,1,.48-.59l.12,0s.07.06.07,0a4.93,4.93,0,0,0-.73-1.24l-.19-.28-.57.92a6.55,6.55,0,0,0-.32.58l-.06.11h0c.27.13.45.21.45.58,0,.73-.8.72-1.39.72h-.17c-.58,0-1.38,0-1.38-.74a.53.53,0,0,1,.23-.46,1.42,1.42,0,0,1,.35-.14l.05,0a.64.64,0,0,0,.23-.1,3.36,3.36,0,0,0,.5-.58c.28-.39.7-1,1.3-2.05l-.9-1.47-.48-.72a2.34,2.34,0,0,0-.23-.31l0,0-.06,0-.15-.09-.11-.05a.88.88,0,0,1-.28-.16.55.55,0,0,1-.21-.46c0-.75,1.08-.75,1.69-.75h0a6.7,6.7,0,0,1,1.11.06c.46.08.79.28.79.71s-.32.53-.53.61h0a.52.52,0,0,0-.15.07,2.23,2.23,0,0,0,.14.31c.15.3.37.64.47.8Z"/><path class="cls-1" d="M190.44,19.92c.64,0,1.71-.49,1.71-2.36,0-2.4-1.22-3.63-2.25-3.63-.63,0-1.72.46-1.72,2.33,0,2.4,1.23,3.66,2.26,3.66Zm-4.23-3a4,4,0,0,1,4.07-4.12,3.72,3.72,0,0,1,3.83,3.92,4.06,4.06,0,0,1-4,4.27A3.88,3.88,0,0,1,186.21,17Z"/><path class="cls-1" d="M196,15.53a3.54,3.54,0,0,0-.16-1.38.78.78,0,0,0-.33-.21c-.17-.06-.43-.17-.43-.44,0-.66.95-.63,1.82-.63s1.82,0,1.82.64c0,.29-.29.39-.43.43a.78.78,0,0,0-.33.21,1.92,1.92,0,0,0-.16.93v.45a1,1,0,0,0,.09.44c.08.1.27.15.68.15h1.75c.41,0,.59-.05.67-.15a.85.85,0,0,0,.09-.44v-.45a2.08,2.08,0,0,0-.15-.93.81.81,0,0,0-.34-.21c-.17-.06-.43-.17-.43-.44,0-.66.95-.63,1.83-.63s1.82,0,1.82.63c0,.28-.26.37-.43.44s-.28.12-.34.21a3.81,3.81,0,0,0-.15,1.38v2.85a3.68,3.68,0,0,0,.15,1.38c.23.35.77.17.77.65,0,.66-1,.62-1.82.62-.66,0-1.83.08-1.83-.59,0-.31.29-.41.43-.48s.28-.11.34-.2a2.08,2.08,0,0,0,.15-.93V17.62a1,1,0,0,0-.09-.45c-.06-.08-.2-.13-.67-.13H198.6c-.41,0-.6.05-.68.15a.83.83,0,0,0-.09.44v1.2a1.92,1.92,0,0,0,.16.93c.06.09.17.13.33.2s.43.17.43.48c0,.67-1.16.59-1.82.59s-1.82.08-1.82-.6c0-.3.27-.4.43-.47s.27-.11.33-.2a3.51,3.51,0,0,0,.16-1.38Z"/><path class="cls-1" d="M207.41,20a.1.1,0,0,1-.09-.08,19.23,19.23,0,0,0,.66-2.32c.42-2,.26-2.71.53-3.21a.83.83,0,0,1,.71-.48h.44c.46,0,.77.13.86.29a10.7,10.7,0,0,1,.15,2.76v.89a9.83,9.83,0,0,1-.14,1.83c-.11.22-.54.32-1,.32Zm-.07-6.77c-.28,0-.77,0-.77.34s.19.29.39.37.66.23.66,1.1a11.06,11.06,0,0,1-.21,2c-.28,1.49-.77,3-1.21,3-.21,0-.15-.05-.28-.05-.46,0-.46.74-.46,1.28,0,.21,0,1.18.33,1.18s.32-.34.41-.65a1.49,1.49,0,0,1,1.69-1.14h2.78c1.3,0,1.57.66,1.71,1.26.06.25.14.53.39.53s.32-.85.32-1.18,0-1.28-.47-1.28c-.18,0-.07.05-.28.05a.63.63,0,0,1-.31-.17c-.19-.19-.24-.59-.24-2.87v-.91c0-1.69.1-1.85.25-1.95a1.3,1.3,0,0,1,.3-.13c.13,0,.35-.08.35-.3,0-.47-1-.44-1.45-.44-.65,0-1.33.06-2,.06s-1.27-.06-1.91-.06Z"/><path class="cls-1" d="M208.29,17.71a18.28,18.28,0,0,0,.33-2.25,2.73,2.73,0,0,1,.16-.87h0a.69.69,0,0,1,.2-.23.42.42,0,0,1,.23-.07h.44a1.36,1.36,0,0,1,.45.06l.14.06v0a9.51,9.51,0,0,1,.1,2.13v1.33c0,.09,0,.73,0,1.22,0,.23,0,.41-.05.44a.36.36,0,0,1-.17.08,2,2,0,0,1-.59.07h-1.76a13.09,13.09,0,0,0,.55-2Zm4.05,2Zm-6.09-6.09h0c0,.46.3.57.6.69h0c.23.08.43.16.43.77,0,.09,0,.31,0,.64A12.5,12.5,0,0,1,207.1,17a11.33,11.33,0,0,1-.57,2.09c-.15.37-.27.6-.33.6s0,0,0,0a.39.39,0,0,0-.25-.07c-.42,0-.62.3-.71.71a4.17,4.17,0,0,0-.07.92v0c0,.32,0,1.49.65,1.49.47,0,.58-.39.69-.79l0-.1a1.32,1.32,0,0,1,.34-.61,1.54,1.54,0,0,1,1-.29h2.78a1.49,1.49,0,0,1,1.08.32,1.54,1.54,0,0,1,.33.68,1.49,1.49,0,0,0,.15.45.59.59,0,0,0,.54.34c.64,0,.64-1,.64-1.48v-.11c0-.61,0-1.56-.79-1.56a.48.48,0,0,0-.28.07h0a.35.35,0,0,1-.11-.07,1,1,0,0,1-.09-.43c0-.39,0-1.05,0-2.19v-.91a11,11,0,0,1,.06-1.51c0-.13,0-.15.05-.16l.09,0,.1,0c.23-.05.6-.13.6-.63,0-.78-1.11-.78-1.69-.78h-.08l-1,0c-.33,0-.65,0-1,0s-.64,0-.94,0l-1,0C206.94,12.92,206.25,12.92,206.25,13.6Z"/><path class="cls-1" d="M217.62,18.24c0,.61,0,.73.16.93a2.13,2.13,0,0,0,1.65.8c1,0,1.9-.82,1.9-2.69s-.93-3-2.11-3c-.91,0-1.6.57-1.6,1.79v2.15Zm-.07-4.43c0,.11,0,.2.07.2s.11-.06.19-.14a4.1,4.1,0,0,1,.38-.3,3,3,0,0,1,1.84-.71c1.62,0,3.29,1.26,3.29,3.85,0,2.83-1.91,4.31-3.6,4.31a4.5,4.5,0,0,1-1.44-.31c-.38-.15-.49-.26-.56-.26s-.17.5-.17.62v.34a2.68,2.68,0,0,0,.2,1.21c.1.14.32.17.44.2s.54.15.54.48c0,.54-1,.54-2,.54-.7,0-1.91.08-1.91-.57,0-.3.26-.39.43-.45a.77.77,0,0,0,.3-.17c.16-.17.28-.57.28-3.36V18c0-2.33,0-3.21-.32-3.48-.15-.12-.26-.06-.6-.23a.34.34,0,0,1-.23-.32c0-.3.26-.44.6-.58a7.1,7.1,0,0,1,1.88-.49c.4,0,.42.29.42.51Z"/><path class="cls-1" d="M228.9,19.92c.64,0,1.71-.49,1.71-2.36,0-2.4-1.22-3.63-2.25-3.63-.63,0-1.72.46-1.72,2.33,0,2.4,1.23,3.66,2.26,3.66Zm-4.23-3a4,4,0,0,1,4.07-4.12,3.72,3.72,0,0,1,3.83,3.92,4.06,4.06,0,0,1-4,4.27A3.88,3.88,0,0,1,224.67,17Z"/><path class="cls-1" d="M235.13,14.9c-.17.28-.27.45-.54.45s-.35-.2-.35-.43a4.69,4.69,0,0,1,.3-1.38c.2-.48.45-.65.63-.65.49,0,.17.16.58.16.14,0,.32-.05.55-.08s.63-.08,1-.08c1.79,0,2.5,1.06,2.5,2.06a1.67,1.67,0,0,1-1.38,1.69,1.87,1.87,0,0,1,1.7,1.93c0,1.25-.87,2.59-3,2.59A5.11,5.11,0,0,1,236,21c-.4-.09-.46-.15-.58-.15a.67.67,0,0,0-.28.1.44.44,0,0,1-.25.08.5.5,0,0,1-.35-.14,3.17,3.17,0,0,1-.67-1.95c0-.4.15-.71.46-.71s.55.34.72.64a5.3,5.3,0,0,0,.3.48,1.94,1.94,0,0,0,1.49.66,1.4,1.4,0,0,0,1.5-1.47,1.25,1.25,0,0,0-1.45-1.28h-.39c-.21,0-.52,0-.52-.46s.31-.44.49-.44h.29c.51,0,1.38-.1,1.38-1.17a1.24,1.24,0,0,0-1.41-1.3,1.61,1.61,0,0,0-1.44.76Z"/></g></g></svg>